<svg width="79" height="24" viewBox="0 0 79 24" fill="none" xmlns="http://www.w3.org/2000/svg">
<g id="dhl-1" clip-path="url(#clip0_204_1742)">
<path id="Vector" d="M0 0H79V24H0V0Z" fill="#FFCB01"/>
<g id="Group">
<path id="Vector_2" d="M14.6816 6.3772L12.2354 9.76172H25.5676C26.2418 9.76172 26.2334 10.0202 25.9039 10.4773C25.5693 10.9395 25.0094 11.739 24.6681 12.2098C24.495 12.4478 24.1823 12.8809 25.2179 12.8809H30.6702L32.2859 10.6451C33.2879 9.26012 32.3733 6.37891 28.7906 6.37891L14.6816 6.3772Z" fill="#D80613"/>
<path id="Vector_3" d="M11.2449 17.4039L16.1592 10.604H22.2571C22.9313 10.604 22.9228 10.8642 22.5933 11.3196L21.3492 13.0452C21.176 13.2832 20.8633 13.7163 21.899 13.7163H30.0665C29.3889 14.6648 27.1831 17.4039 23.2288 17.4039H11.2449ZM39.3856 13.7146L36.7208 17.4039H29.6915L32.3563 13.7146H39.3856ZM50.1523 12.8792H32.9616L37.6623 6.3772H44.6882L41.9949 10.1058H45.1304L47.8271 6.3772H54.853L50.1523 12.8792ZM49.5487 13.7146L46.8839 17.4039H39.858L42.5228 13.7146H49.5487ZM1.21631 15.1698H11.5694L11.0045 15.9521H1.21631V15.1698ZM1.21631 13.7146H12.6219L12.0553 14.497H1.21631V13.7146ZM1.21631 16.6249H10.5186L9.95541 17.4039H1.21631V16.6249ZM77.7852 15.9521H67.4691L68.0357 15.1698H77.7852V15.9521ZM77.7852 17.4039H66.4217L66.9832 16.6249H77.7852V17.4039ZM69.0864 13.7146H77.7852V14.4987H68.5215L69.0864 13.7146ZM64.5841 6.3772L59.8833 12.8792H52.4371L57.1412 6.3772H64.5841ZM51.8352 13.7146C51.8352 13.7146 51.3224 14.4302 51.0719 14.7726C50.1909 15.9881 50.9694 17.4022 53.8493 17.4022H65.1338L67.7986 13.7146H51.8352Z" fill="#D80613"/>
</g>
</g>
<defs>
<clipPath id="clip0_204_1742">
<rect width="79" height="24" fill="white"/>
</clipPath>
</defs>
</svg>
