<svg width="58" height="16" viewBox="0 0 58 16" fill="none" xmlns="http://www.w3.org/2000/svg">
<g id="fedex-express-6" clip-path="url(#clip0_204_1780)">
<path id="Vector" d="M57.643 13.9194C57.643 13.0302 57.0094 12.3791 56.1365 12.3791C55.2651 12.3791 54.6307 13.0302 54.6307 13.9194C54.6307 14.8072 55.2651 15.4573 56.1365 15.4573C57.0094 15.4573 57.643 14.8061 57.643 13.9194ZM55.7407 13.9984V15.0046H55.4141V12.786H56.2257C56.7013 12.786 56.9195 12.9927 56.9195 13.3956C56.9195 13.6438 56.7509 13.8404 56.5338 13.8689V13.8783C56.7223 13.9083 56.7915 14.0756 56.8303 14.3819C56.8601 14.5803 56.8996 14.9245 56.9706 15.0053H56.5842C56.4943 14.7968 56.5034 14.5017 56.4341 14.2546C56.3768 14.0666 56.2761 13.9981 56.0597 13.9981H55.7425V13.9992L55.7407 13.9984ZM56.1456 13.7116C56.4628 13.7116 56.5534 13.5435 56.5534 13.3953C56.5534 13.22 56.4628 13.0814 56.1456 13.0814H55.7407V13.7124H56.1456V13.7116ZM54.2715 13.9194C54.2715 12.8239 55.1455 12.0833 56.1351 12.0833C57.1276 12.0833 58.0005 12.8239 58.0005 13.9194C58.0005 15.0129 57.1279 15.7542 56.1351 15.7542C55.1455 15.7542 54.2715 15.0129 54.2715 13.9194Z" fill="#FF5A00"/>
<g id="Group">
<path id="Vector_2" d="M47.8129 15.4342L45.6644 13.0363L43.5347 15.4342H39.0536L43.4332 10.5375L39.0536 5.6393H43.6747L45.8449 8.01876L47.9332 5.6393H52.3926L48.0347 10.5169L52.4532 15.4342H47.8129ZM30.4487 15.4342V0.00411987H39.0536V3.44345H34.0936V5.6393H39.0536V8.94876H34.0936V11.9862H39.0536V15.4342H30.4487Z" fill="#FF5A00"/>
</g>
<path id="Vector_3" d="M26.8172 0.00411987V6.31894H26.777C25.9734 5.39976 24.9689 5.07942 23.8042 5.07942C21.4175 5.07942 19.6196 6.69519 18.9885 8.82971C18.2686 6.4773 16.4122 5.03541 13.6602 5.03541C11.4247 5.03541 9.66008 6.03359 8.73826 7.66054V5.63894H4.11829V3.44381H9.16057V0.00484234H0V15.4342H4.11829V8.94876H8.22316C8.09672 9.44748 8.03351 9.95999 8.03502 10.4743C8.03502 13.6915 10.5054 15.9522 13.6595 15.9522C16.3107 15.9522 18.0594 14.7124 18.9834 12.4552H15.4538C14.9768 13.1345 14.6143 13.335 13.6598 13.335C12.5535 13.335 11.5987 12.374 11.5987 11.2362H18.7855C19.0972 13.7921 21.0982 15.9959 23.8444 15.9959C25.0291 15.9959 26.1136 15.4162 26.7766 14.4368H26.8165V15.4364H30.4476V0.00484234H26.8172V0.00411987ZM11.7132 8.99493C11.9427 8.01443 12.7065 7.37375 13.6598 7.37375C14.7096 7.37375 15.4346 7.99459 15.6249 8.99493H11.7132ZM24.6137 13.0861C23.2757 13.0861 22.4441 11.8455 22.4441 10.5497C22.4441 9.16448 23.1677 7.8337 24.6137 7.8337C26.114 7.8337 26.7118 9.1652 26.7118 10.5497C26.7118 11.8621 26.0788 13.0861 24.6137 13.0861Z" fill="#29007C"/>
</g>
<defs>
<clipPath id="clip0_204_1780">
<rect width="58" height="16" fill="white"/>
</clipPath>
</defs>
</svg>
