<svg width="122" height="119" viewBox="0 0 122 119" fill="none" xmlns="http://www.w3.org/2000/svg">
<g id="logo-group">
<g id="container-group">
<path id="container" d="M59.8268 0.753733C58.4544 0.756338 56.9771 0.770067 56.544 0.784178C56.1105 0.798288 55.4569 0.828732 55.0916 0.851383C54.7259 0.874034 54.117 0.918215 53.7378 0.9494C53.3591 0.980585 52.672 1.04742 52.211 1.09791C51.7503 1.14878 51.1217 1.22452 50.8144 1.26647C50.5072 1.30843 49.9374 1.39197 49.5482 1.45212C49.159 1.51264 48.479 1.6281 48.037 1.70905C47.595 1.78999 46.9246 1.92179 46.5474 2.00236C46.1701 2.08293 45.6018 2.20991 45.2841 2.28416C44.9668 2.35842 44.3885 2.50248 43.9993 2.60384C43.6101 2.70557 43.0236 2.86486 42.6959 2.95768C42.3681 3.0505 41.6739 3.25954 41.153 3.42253C40.632 3.58552 39.832 3.85136 39.3754 4.01325C38.9189 4.17513 38.2556 4.41832 37.9018 4.55421C37.548 4.68973 36.9235 4.93811 36.5134 5.10631C36.1038 5.27413 35.3999 5.57636 34.9493 5.77723C34.4991 5.97846 33.5859 6.4125 32.9201 6.74183C32.2546 7.07154 31.3578 7.53342 30.9277 7.76841C30.4975 8.00344 29.8358 8.37621 29.4566 8.59599C29.0779 8.81617 28.4347 9.20378 28.0277 9.45736C27.621 9.71095 26.9339 10.1543 26.5008 10.4424C26.0681 10.7305 25.4543 11.1504 25.1367 11.3751C24.8194 11.5997 24.2243 12.0352 23.8146 12.343C23.405 12.6505 22.7599 13.1498 22.3808 13.4528C22.0021 13.7554 21.3734 14.2749 20.9843 14.6064C20.5951 14.9383 19.9836 15.4749 19.625 15.799C19.2667 16.1231 18.3853 16.9741 17.6665 17.6899C16.9477 18.4058 16.0971 19.2809 15.7761 19.6347C15.4551 19.9882 14.9307 20.5815 14.6108 20.9528C14.2909 21.3241 13.7405 21.9868 13.3882 22.426C13.0356 22.8649 12.5217 23.5251 12.2457 23.8926C11.9697 24.2602 11.5597 24.8197 11.3344 25.1364C11.1087 25.4528 10.7818 25.9206 10.6075 26.176C10.4328 26.4311 10.0749 26.9743 9.81203 27.3827C9.54874 27.7911 9.11302 28.4928 8.84336 28.9421C8.57374 29.3914 8.176 30.0767 7.95929 30.4651C7.74255 30.8535 7.37907 31.5285 7.1515 31.9655C6.92396 32.4021 6.56384 33.1205 6.35122 33.5613C6.13857 34.002 5.85592 34.6049 5.72297 34.9012C5.59038 35.1972 5.34311 35.7652 5.1744 36.1636C5.00533 36.5616 4.71224 37.2886 4.52306 37.7787C4.3335 38.2688 4.06089 39.0039 3.91715 39.4124C3.77303 39.8208 3.53543 40.5307 3.38944 40.9903C3.24308 41.4496 3.02485 42.168 2.90419 42.5868C2.78353 43.0053 2.60067 43.6736 2.49752 44.072C2.39436 44.47 2.23273 45.1302 2.13852 45.5386C2.04393 45.947 1.88528 46.6903 1.78547 47.1908C1.68566 47.6909 1.54526 48.4513 1.47376 48.8801C1.40226 49.309 1.30171 49.9521 1.25069 50.3096C1.1993 50.6668 1.11514 51.3184 1.06374 51.7576C1.01198 52.1965 0.944571 52.8314 0.914035 53.1685C0.883123 53.5052 0.840671 54.0232 0.819445 54.3195C0.798219 54.6154 0.763583 55.1586 0.742726 55.5262C0.722243 55.8937 0.694687 56.8628 0.682396 57.6796C0.668244 58.5855 0.676435 59.6136 0.702879 60.3157C0.727085 60.9488 0.771399 61.8257 0.801943 62.265C0.832111 62.7038 0.873076 63.2385 0.893184 63.4531C0.913291 63.6673 0.963198 64.1771 1.00453 64.5855C1.0455 64.9939 1.11291 65.7124 1.15424 66.182C1.19595 66.6517 1.28048 67.4452 1.34268 67.9456C1.4045 68.4458 1.49686 69.1308 1.54751 69.4679C1.59778 69.8047 1.68158 70.3226 1.73297 70.6189C1.78473 70.9148 1.88566 71.4662 1.9579 71.8442C2.02978 72.2217 2.17242 72.9068 2.27445 73.3664C2.37649 73.8257 2.55302 74.5683 2.66697 75.016C2.78056 75.4638 2.98128 76.2075 3.11275 76.6683C3.24421 77.129 3.46281 77.8571 3.59874 78.286C3.73467 78.7148 3.97562 79.4332 4.13464 79.8825C4.29329 80.3317 4.50184 80.908 4.59755 81.1634C4.69326 81.4185 4.92751 82.0118 5.1178 82.4815C5.30848 82.9512 5.62316 83.6944 5.81755 84.1337C6.01232 84.5726 6.35903 85.3211 6.58809 85.7963C6.8175 86.2716 7.19065 87.0153 7.41711 87.4486C7.64353 87.8818 7.99695 88.5372 8.20212 88.9047C8.40732 89.2723 8.78531 89.9239 9.04192 90.3527C9.2985 90.7816 9.68433 91.408 9.8992 91.745C10.1137 92.0818 10.4556 92.6057 10.6589 92.9087C10.8622 93.212 11.2309 93.7467 11.4789 94.0968C11.727 94.4473 12.1813 95.0681 12.4893 95.4765C12.7969 95.8849 13.3175 96.5532 13.6456 96.9616C13.9741 97.37 14.4936 97.9964 14.8008 98.3539C15.1077 98.7111 15.5855 99.2539 15.8626 99.5599C16.1397 99.8658 16.7065 100.471 17.1221 100.904C17.5377 101.338 18.2338 102.032 18.6687 102.446C19.1037 102.86 19.7022 103.418 19.9986 103.685C20.2951 103.953 20.8511 104.439 21.2343 104.767C21.6175 105.094 22.2543 105.62 22.6495 105.935C23.0446 106.25 23.611 106.693 23.9078 106.918C24.205 107.143 24.7997 107.578 25.2299 107.884C25.66 108.19 26.3136 108.641 26.6823 108.886C27.051 109.131 27.6085 109.494 27.9209 109.691C28.2338 109.89 28.8203 110.249 29.2244 110.49C29.6288 110.731 30.2612 111.096 30.6298 111.301C30.9985 111.506 31.6856 111.875 32.1567 112.122C32.6278 112.368 33.4017 112.754 33.8765 112.978C34.351 113.203 35.0228 113.512 35.3688 113.665C35.7151 113.818 36.3069 114.072 36.6845 114.229C37.0617 114.386 37.6888 114.635 38.0781 114.784C38.4672 114.933 39.1711 115.191 39.6422 115.358C40.1133 115.525 40.9177 115.792 41.4297 115.952C41.9418 116.112 42.7213 116.343 43.1615 116.467C43.602 116.59 44.3003 116.776 44.7137 116.878C45.1267 116.982 45.8391 117.149 46.2964 117.25C46.7534 117.352 47.5719 117.518 48.1145 117.62C48.6575 117.721 49.4366 117.855 49.8462 117.918C50.2559 117.98 50.9095 118.072 51.2986 118.123C51.6878 118.174 52.3246 118.249 52.7138 118.29C53.103 118.331 53.7316 118.39 54.1103 118.42C54.4895 118.45 55.101 118.493 55.4696 118.515C55.8383 118.537 56.7433 118.569 57.4807 118.585C58.2181 118.602 59.031 118.607 59.2869 118.596C59.5431 118.586 60.6197 118.6 61.68 118.627C63.2114 118.665 63.8921 118.667 64.9945 118.632C65.7572 118.607 66.7586 118.563 67.2192 118.532C67.6803 118.502 68.2415 118.46 68.4668 118.44C68.6921 118.419 69.1278 118.377 69.4351 118.346C69.7423 118.315 70.3288 118.248 70.7385 118.196C71.1481 118.145 71.7012 118.07 71.9675 118.03C72.2337 117.989 72.7953 117.898 73.215 117.828C73.6351 117.758 74.2735 117.642 74.6343 117.571C74.9948 117.499 75.5981 117.372 75.975 117.289C76.3515 117.205 76.995 117.054 77.4047 116.952C77.8143 116.85 78.3674 116.707 78.6336 116.635C78.8999 116.563 79.5032 116.389 79.9743 116.249C80.4454 116.109 81.1827 115.879 81.6129 115.737C82.043 115.595 82.7048 115.366 83.0839 115.229C83.463 115.092 84.1665 114.825 84.648 114.635C85.1296 114.446 85.8249 114.162 86.1936 114.003C86.5622 113.845 87.2076 113.558 87.6273 113.364C88.0474 113.171 88.8854 112.764 89.4894 112.46C90.0938 112.156 90.9396 111.713 91.3693 111.475C91.7987 111.237 92.4608 110.859 92.8404 110.633C93.2195 110.407 93.8235 110.04 94.1818 109.815C94.5404 109.591 95.1772 109.178 95.5969 108.897C96.017 108.617 96.6371 108.191 96.9749 107.951C97.313 107.711 97.9252 107.26 98.336 106.95C98.7468 106.639 99.2577 106.246 99.4719 106.075C99.686 105.905 100.171 105.506 100.55 105.189C100.929 104.873 101.465 104.414 101.742 104.17C102.018 103.926 102.555 103.438 102.933 103.086C103.313 102.733 104.05 102.013 104.574 101.486C105.096 100.958 105.717 100.317 105.953 100.062C106.189 99.8066 106.574 99.3807 106.81 99.1152C107.045 98.8498 107.422 98.4153 107.649 98.1499C107.874 97.8844 108.301 97.3665 108.597 96.9989C108.893 96.6313 109.387 95.9964 109.695 95.588C110.004 95.1796 110.447 94.5781 110.68 94.2514C110.912 93.9247 111.382 93.2378 111.723 92.7254C112.064 92.2126 112.553 91.4526 112.809 91.036C113.065 90.6195 113.485 89.911 113.742 89.4618C113.998 89.0126 114.326 88.4277 114.469 88.1623C114.612 87.8968 114.964 87.2118 115.251 86.64C115.538 86.0683 115.91 85.3008 116.078 84.9343C116.245 84.5679 116.492 84.0165 116.626 83.7091C116.759 83.4017 117.033 82.7404 117.234 82.2403C117.435 81.7402 117.712 81.0214 117.849 80.6438C117.987 80.2658 118.239 79.5392 118.409 79.0287C118.578 78.5182 118.828 77.7266 118.963 77.2692C119.098 76.8121 119.309 76.0603 119.431 75.5984C119.553 75.1369 119.738 74.3936 119.841 73.9473C119.944 73.501 120.112 72.7239 120.212 72.2208C120.313 71.7177 120.455 70.9551 120.526 70.5263C120.598 70.0974 120.698 69.4458 120.751 69.0782C120.803 68.7107 120.879 68.1341 120.92 67.7973C120.961 67.4602 121.028 66.8338 121.069 66.405C121.11 65.9762 121.168 65.2577 121.198 64.8085C121.228 64.3592 121.273 63.4737 121.297 62.8406C121.324 62.1297 121.332 61.1004 121.317 60.1488C121.305 59.3011 121.277 58.3072 121.256 57.9397C121.236 57.5721 121.193 56.9372 121.162 56.5288C121.131 56.1204 121.072 55.4602 121.031 55.0622C120.99 54.6638 120.906 53.9454 120.844 53.4657C120.783 52.9856 120.658 52.1376 120.566 51.5807C120.475 51.0241 120.332 50.2221 120.248 49.7985C120.164 49.3752 119.996 48.5907 119.874 48.0549C119.751 47.5192 119.536 46.6504 119.395 46.1242C119.254 45.5981 119.035 44.8247 118.91 44.4063C118.785 43.9875 118.542 43.2275 118.371 42.717C118.2 42.2064 117.926 41.4294 117.763 40.9905C117.599 40.5516 117.348 39.8997 117.204 39.5425C117.061 39.1849 116.81 38.5838 116.647 38.2058C116.484 37.8279 116.203 37.2015 116.024 36.8135C115.844 36.4255 115.493 35.6985 115.241 35.1984C114.99 34.6979 114.621 33.988 114.422 33.6205C114.222 33.2529 113.891 32.6596 113.685 32.3024C113.48 31.9449 113.169 31.4187 112.996 31.1329C112.822 30.847 112.449 30.2537 112.167 29.8148C111.885 29.3759 111.444 28.7114 111.186 28.3385C110.929 27.9654 110.539 27.4141 110.32 27.1133C110.101 26.8122 109.615 26.165 109.24 25.675C108.865 25.1849 108.284 24.4163 107.949 23.967C107.613 23.5178 107.091 22.841 106.786 22.4633C106.482 22.0854 106.049 21.5592 105.824 21.2938C105.599 21.0283 105.23 20.6021 105.004 20.347C104.779 20.0916 104.306 19.5737 103.953 19.196C103.601 18.8181 102.838 18.0406 102.257 17.4681C101.676 16.8956 100.992 16.2343 100.736 15.9989C100.48 15.7635 99.9942 15.3298 99.6561 15.035C99.3183 14.7402 98.8491 14.3393 98.6133 14.1435C98.378 13.9479 97.9337 13.5877 97.6265 13.3431C97.3192 13.0984 96.825 12.7137 96.5279 12.4884C96.231 12.263 95.745 11.9036 95.4479 11.6901C95.151 11.4763 94.6148 11.0998 94.2561 10.8536C93.8979 10.6071 93.2946 10.2057 92.9155 9.96177C92.5367 9.71746 91.8664 9.30088 91.4258 9.03543C90.9856 8.76996 90.2818 8.36003 89.8617 8.12431C89.442 7.88854 88.7065 7.49126 88.2279 7.24103C87.749 6.99116 86.9699 6.6028 86.4962 6.3782C86.0225 6.15357 85.3402 5.83909 84.9805 5.67943C84.6204 5.51978 84.0338 5.26879 83.6771 5.12176C83.3199 4.97473 82.7263 4.73822 82.3576 4.59602C81.9889 4.45381 81.3942 4.23253 81.0356 4.10444C80.6773 3.97597 80.0233 3.75357 79.5832 3.60989C79.143 3.46583 78.4726 3.25605 78.0935 3.14318C77.7144 3.03068 77.1617 2.87177 76.8646 2.79009C76.5677 2.70878 76.0229 2.56658 75.6542 2.4745C75.2855 2.38205 74.7243 2.24801 74.4066 2.17635C74.0893 2.10469 73.4942 1.97771 73.0846 1.89417C72.6749 1.81064 71.8537 1.66064 71.2598 1.56076C70.6658 1.46051 69.8613 1.33613 69.4722 1.28378C69.083 1.2318 68.4715 1.15606 68.1129 1.11558C67.7546 1.07512 67.193 1.01682 66.8653 0.986374C66.5376 0.95593 65.8758 0.905433 65.3943 0.874615C64.9131 0.843797 64.0249 0.802956 63.4205 0.784024C62.8165 0.765086 61.1991 0.751136 59.8268 0.753733ZM60.3668 2.02686C60.9097 2.03428 61.7476 2.06658 62.2288 2.09814C62.7103 2.1297 63.4645 2.18948 63.9047 2.23069C64.3452 2.2719 64.982 2.33874 65.3198 2.37958C65.658 2.42004 66.236 2.49542 66.6046 2.54666C66.9733 2.59789 67.5767 2.68997 67.9453 2.75124C68.314 2.8125 69.0011 2.93799 69.4722 3.03044C69.9433 3.12252 70.6639 3.27289 71.0736 3.3646C71.4832 3.4563 71.986 3.57289 72.1908 3.62376C72.3956 3.67425 72.9449 3.81794 73.4112 3.94269C73.8778 4.06744 74.2525 4.17622 74.2443 4.1844C74.2361 4.19257 74.0015 4.15729 73.7229 4.10605C73.4444 4.05482 72.7848 3.9464 72.2567 3.86509C71.729 3.78415 70.9537 3.675 70.5336 3.62338C70.1139 3.5714 69.4268 3.49566 69.0067 3.45482C68.587 3.41361 67.8832 3.35532 67.4426 3.3245C67.0024 3.29405 66.2482 3.25098 65.7667 3.22945C65.2856 3.20791 64.1292 3.19269 63.1971 3.19529C62.2653 3.19789 60.9079 3.18081 60.1806 3.15742C59.4536 3.13403 58.4481 3.12512 57.9461 3.13737C57.4445 3.14963 56.6568 3.17562 56.1958 3.19566C55.7351 3.21571 55.0145 3.25693 54.5944 3.28774C54.1747 3.31856 53.5628 3.36943 53.2351 3.40024C52.9074 3.43106 52.2288 3.5068 51.7268 3.56844C51.2252 3.63007 50.4458 3.737 49.9951 3.80606C49.5445 3.87549 48.7568 4.00879 48.2448 4.10272C47.7327 4.19665 46.8948 4.36559 46.3827 4.47846C45.8707 4.59096 45.0662 4.78143 44.5952 4.90098C44.1241 5.02091 43.3003 5.24442 42.7648 5.39813C42.2289 5.55184 41.3582 5.81954 40.8297 5.9933C40.3013 6.16706 39.8629 6.30332 39.8559 6.29627C39.8484 6.28922 40.2249 6.13253 40.6919 5.948C41.1593 5.76348 41.7723 5.52771 42.0546 5.42375C42.3369 5.31979 42.9402 5.1089 43.3953 4.95482C43.8503 4.80111 44.5747 4.56794 45.0048 4.43687C45.4349 4.30618 46.1808 4.09195 46.662 3.96089C47.1436 3.82982 47.9312 3.62933 48.4124 3.51534C48.8939 3.40136 49.702 3.22426 50.2085 3.12178C50.715 3.0193 51.4274 2.88453 51.7913 2.82252C52.1551 2.76014 52.7211 2.66881 53.0489 2.61943C53.3766 2.57005 53.9129 2.49505 54.2406 2.45309C54.5683 2.41114 55.0543 2.3521 55.3206 2.32203C55.5869 2.29195 56.1987 2.23403 56.6799 2.19319C57.1614 2.15235 57.8735 2.10149 58.2626 2.07995C58.6518 2.05842 59.0626 2.03466 59.175 2.02686C59.2879 2.01943 59.8242 2.01943 60.3668 2.02686ZM62.0612 4.44615C62.1841 4.4521 62.6284 4.48217 63.0481 4.51336C63.4682 4.54418 64.1467 4.60284 64.5564 4.64405C64.966 4.68527 65.6282 4.76026 66.0274 4.81076C66.427 4.86125 67.0806 4.95259 67.4798 5.01422C67.8794 5.07586 68.5747 5.19281 69.0253 5.27486C69.4759 5.35654 70.2301 5.50618 70.7012 5.60679C71.1723 5.70778 71.9305 5.88228 72.3867 5.99516C72.8426 6.10802 73.4961 6.27696 73.8391 6.3709C74.1817 6.4652 74.8145 6.64825 75.2446 6.77783C75.6747 6.90778 76.4258 7.14874 76.9137 7.31359C77.4016 7.47844 78.0969 7.72349 78.4592 7.8579C78.8212 7.99231 79.4446 8.23253 79.8439 8.39181C80.2435 8.55109 80.897 8.82288 81.2963 8.99589C81.6959 9.16891 82.2738 9.4277 82.5811 9.57101C82.8883 9.71433 83.3743 9.94489 83.6611 10.0834C83.9478 10.2222 84.5176 10.51 84.9273 10.7231C85.3369 10.9359 85.9153 11.2448 86.2121 11.4093C86.5093 11.5737 87.0791 11.9001 87.4783 12.1347C87.8779 12.369 88.4972 12.744 88.8547 12.9683C89.2126 13.1929 89.8326 13.5939 90.2326 13.8605C90.633 14.1267 91.2538 14.5533 91.612 14.8087C91.9707 15.0645 92.5319 15.4744 92.8596 15.7198C93.1873 15.9656 93.7992 16.4416 94.2189 16.7776C94.639 17.114 95.2591 17.6256 95.5968 17.9145C95.935 18.2037 96.4124 18.6207 96.6582 18.8408C96.904 19.0614 97.495 19.6113 97.9717 20.0623C98.4484 20.5135 99.2215 21.2842 99.69 21.7751C100.158 22.2659 100.761 22.912 101.03 23.2109C101.3 23.5097 101.731 24.0028 101.989 24.3062C102.247 24.6095 102.721 25.1835 103.042 25.5819C103.363 25.9799 103.894 26.6649 104.223 27.1041C104.551 27.543 105.002 28.1612 105.225 28.4779C105.448 28.7942 105.884 29.4377 106.194 29.9074C106.504 30.377 106.967 31.1036 107.223 31.5224C107.479 31.9409 107.831 32.5342 108.006 32.8405C108.181 33.1468 108.453 33.6314 108.61 33.9172C108.767 34.2031 109.153 34.9464 109.467 35.5695C109.781 36.1921 110.206 37.0694 110.411 37.5187C110.616 37.968 110.897 38.6028 111.034 38.9296C111.172 39.2563 111.41 39.8411 111.564 40.2291C111.717 40.6171 111.956 41.2434 112.094 41.6214C112.232 41.9994 112.491 42.749 112.669 43.2881C112.847 43.8269 113.116 44.6968 113.268 45.221C113.419 45.7453 113.636 46.5432 113.749 46.9935C113.862 47.4442 114.03 48.1449 114.121 48.5507C114.212 48.9565 114.348 49.5974 114.422 49.9753C114.496 50.3533 114.622 51.0465 114.702 51.5162C114.782 51.9858 114.897 52.7459 114.959 53.2055C115.021 53.6648 115.088 54.2161 115.109 54.4308C115.129 54.645 115.167 55.1548 115.193 55.5632C115.225 56.0466 115.241 57.1356 115.24 58.682C115.239 60.5451 115.224 61.2546 115.174 61.9679C115.139 62.468 115.076 63.2451 115.035 63.6943C114.994 64.1436 114.91 64.9203 114.849 65.4208C114.788 65.9209 114.678 66.7125 114.605 67.1792C114.532 67.6459 114.4 68.4145 114.311 68.8871C114.221 69.3598 114.088 70.0303 114.014 70.3775C113.94 70.7246 113.763 71.4765 113.621 72.0483C113.48 72.62 113.24 73.5223 113.087 74.0532C112.934 74.5841 112.664 75.4612 112.485 76.0025C112.307 76.5434 112.027 77.3539 111.863 77.8032C111.699 78.2524 111.41 79.0043 111.22 79.474C111.03 79.9436 110.732 80.6539 110.557 81.0519C110.382 81.45 110.078 82.1182 109.88 82.5371C109.683 82.9559 109.321 83.6869 109.077 84.1619C108.832 84.6367 108.42 85.4053 108.161 85.8698C107.901 86.3342 107.493 87.0397 107.254 87.438C107.015 87.8361 106.604 88.4962 106.341 88.9046C106.078 89.313 105.661 89.9394 105.415 90.2969C105.169 90.6541 104.817 91.1554 104.633 91.4108C104.449 91.6659 104.101 92.1363 103.86 92.4556C103.619 92.7749 103.217 93.2929 102.966 93.6066C102.715 93.9203 102.342 94.3774 102.137 94.6224C101.931 94.8675 101.595 95.2599 101.391 95.4949C101.186 95.7296 100.776 96.1892 100.48 96.516C100.184 96.8427 99.3364 97.7122 98.5975 98.4485C97.8586 99.1844 96.9902 100.023 96.6677 100.312C96.3451 100.6 95.8007 101.077 95.4573 101.37C95.114 101.664 94.6488 102.054 94.4235 102.238C94.1982 102.421 93.7121 102.806 93.3435 103.091C92.9748 103.378 92.4218 103.796 92.1145 104.021C91.8073 104.247 91.3466 104.578 91.0904 104.757C90.8346 104.937 90.2394 105.338 89.7683 105.649C89.2972 105.959 88.6101 106.398 88.2415 106.623C87.8728 106.849 87.3197 107.179 87.0125 107.358C86.7053 107.537 86.102 107.876 85.6718 108.111C85.2417 108.346 84.3453 108.807 83.6794 109.136C83.0139 109.466 82.0587 109.917 81.5567 110.139C81.055 110.361 80.2134 110.715 79.6868 110.926C79.1598 111.138 78.3387 111.451 77.862 111.623C77.3849 111.794 76.6092 112.061 76.1381 112.214C75.667 112.368 74.9047 112.603 74.4436 112.736C73.983 112.869 73.3208 113.053 72.9726 113.145C72.6244 113.237 71.9712 113.398 71.5213 113.503C71.0711 113.609 70.2928 113.777 69.7915 113.877C69.2906 113.978 68.427 114.135 67.8729 114.226C67.3187 114.318 66.5553 114.434 66.1762 114.484C65.7974 114.535 65.0936 114.618 64.612 114.669C64.1309 114.72 63.4103 114.787 63.0107 114.818C62.6115 114.849 61.9493 114.892 61.5397 114.914C61.13 114.936 60.4597 114.954 60.05 114.954C59.6404 114.954 58.9953 114.936 58.6162 114.914C58.2375 114.893 57.6926 114.858 57.4059 114.837C57.1191 114.816 56.6164 114.774 56.2887 114.744C55.9609 114.713 55.4667 114.664 55.19 114.633C54.9137 114.602 54.3186 114.527 53.868 114.465C53.4174 114.404 52.655 114.288 52.1735 114.208C51.6924 114.128 50.9152 113.986 50.4466 113.893C49.9781 113.8 49.1909 113.63 48.697 113.516C48.2032 113.401 47.4048 113.202 46.9225 113.073C46.4403 112.944 45.7614 112.753 45.4135 112.649C45.0657 112.544 44.4795 112.361 44.1108 112.242C43.7421 112.122 43.1221 111.912 42.7329 111.776C42.3437 111.64 41.7405 111.42 41.3922 111.287C41.044 111.154 40.4407 110.914 40.0515 110.754C39.6624 110.594 39.0423 110.33 38.6736 110.168C38.3049 110.006 37.6264 109.694 37.1654 109.475C36.7047 109.256 36.1349 108.976 35.8992 108.853C35.6638 108.73 35.2784 108.529 35.0426 108.405C34.8073 108.282 34.3295 108.022 33.9812 107.828C33.633 107.634 32.9765 107.253 32.5221 106.981C32.0674 106.71 31.4559 106.334 31.1628 106.147C30.8694 105.959 30.4035 105.655 30.1268 105.471C29.8505 105.287 29.3727 104.961 29.0654 104.746C28.7582 104.532 28.1549 104.095 27.7247 103.775C27.2946 103.455 26.6075 102.925 26.1979 102.598C25.7882 102.271 25.1346 101.731 24.7455 101.398C24.3563 101.064 23.7697 100.549 23.442 100.252C23.1143 99.9553 22.3959 99.2688 21.8455 98.7267C21.295 98.1847 20.5931 97.4744 20.2854 97.1484C19.9778 96.822 19.487 96.2873 19.1947 95.9603C18.9027 95.6328 18.3835 95.0309 18.0413 94.6225C17.6991 94.2141 17.3189 93.7462 17.196 93.5829C17.0734 93.4195 16.6601 92.818 16.2772 92.2463C15.8947 91.6745 15.4206 90.9475 15.2244 90.6312C15.0278 90.3145 14.7332 89.83 14.5689 89.5545C14.4051 89.2786 14.112 88.7692 13.9176 88.422C13.7232 88.0749 13.391 87.4648 13.1799 87.0668C12.9683 86.6688 12.625 85.992 12.4164 85.5631C12.2083 85.1343 11.8865 84.4493 11.7014 84.0409C11.5163 83.6325 11.2184 82.9474 11.0393 82.5186C10.8601 82.0898 10.5637 81.3461 10.3801 80.8664C10.1969 80.3863 9.85649 79.4258 9.6241 78.7315C9.39134 78.0372 9.07628 77.0347 8.92395 76.5038C8.77164 75.9728 8.56197 75.2043 8.45806 74.7959C8.35453 74.3874 8.19439 73.7191 8.10241 73.3107C8.01043 72.9023 7.87673 72.2756 7.8056 71.9184C7.73447 71.5608 7.62498 70.9761 7.56205 70.6189C7.49948 70.2613 7.39036 69.5764 7.31924 69.0966C7.24848 68.6165 7.15612 67.9315 7.11441 67.5744C7.07307 67.2168 7.00567 66.5571 6.96507 66.1078C6.9241 65.6585 6.87345 65.0403 6.85223 64.734C6.831 64.4277 6.79674 63.8262 6.77663 63.3974C6.75614 62.9686 6.73976 61.8573 6.73976 60.9283C6.73976 59.999 6.75689 58.8714 6.77775 58.4222C6.79823 57.9729 6.84068 57.2545 6.87159 56.8256C6.9025 56.3968 6.96097 55.7118 7.00194 55.3034C7.0429 54.895 7.1185 54.2266 7.1699 53.8182C7.22129 53.4098 7.30471 52.7998 7.35573 52.463C7.40675 52.1259 7.49017 51.6079 7.54119 51.312C7.59258 51.0158 7.70207 50.431 7.78474 50.0125C7.86779 49.5937 8.0108 48.9173 8.10241 48.5088C8.19439 48.1004 8.35453 47.4321 8.45806 47.0237C8.56196 46.6153 8.7694 45.8549 8.91911 45.3344C9.06919 44.8134 9.29226 44.0787 9.41553 43.7007C9.5388 43.3227 9.72538 42.7639 9.83003 42.4588C9.93505 42.1536 10.1551 41.5462 10.3197 41.1088C10.484 40.6718 10.7752 39.9355 10.9663 39.4732C11.1573 39.011 11.4221 38.3902 11.5543 38.0943C11.6865 37.798 11.9155 37.2979 12.0634 36.9826C12.2112 36.6674 12.492 36.0908 12.6875 35.7017C12.8831 35.3126 13.2186 34.668 13.4335 34.27C13.6484 33.8716 14.0156 33.2145 14.2495 32.809C14.4837 32.4036 14.8364 31.8103 15.0337 31.4909C15.2307 31.1713 15.5592 30.6507 15.7633 30.3344C15.9677 30.0177 16.2951 29.525 16.491 29.2391C16.6868 28.9532 17.0146 28.4854 17.219 28.1995C17.4231 27.9136 17.8119 27.386 18.0823 27.027C18.353 26.668 18.7801 26.1166 19.0319 25.8018C19.2837 25.4869 19.7362 24.9367 20.0374 24.5795C20.3391 24.2219 20.7569 23.7374 20.9666 23.5028C21.1763 23.2677 21.6116 22.7918 21.9345 22.4446C22.2573 22.0974 23.0137 21.3285 23.6148 20.7359C24.2162 20.143 24.9681 19.4246 25.2854 19.1394C25.6031 18.8539 26.1059 18.4106 26.4026 18.154C26.6998 17.8979 27.1773 17.4954 27.464 17.26C27.7508 17.0246 28.2543 16.6233 28.5831 16.3675C28.9116 16.112 29.4647 15.6943 29.8121 15.4393C30.1592 15.1845 30.72 14.7836 31.0578 14.5489C31.3959 14.3139 31.8733 13.9879 32.1192 13.8242C32.3649 13.6604 32.8606 13.3415 33.2207 13.1154C33.5808 12.8893 34.1424 12.5462 34.4683 12.3528C34.7945 12.1593 35.3796 11.8215 35.7688 11.6017C36.158 11.3819 37.0126 10.93 37.6681 10.5973C38.3235 10.2646 39.1532 9.85588 39.5115 9.6884C39.8701 9.52095 40.4902 9.24248 40.8894 9.06947C41.2887 8.89645 41.9508 8.62133 42.3605 8.45796C42.7701 8.2946 43.3734 8.06106 43.7011 7.9389C44.0289 7.81675 44.716 7.57542 45.228 7.40277C45.7401 7.23012 46.511 6.9821 46.9411 6.85141C47.3712 6.72109 47.9328 6.55586 48.1887 6.48458C48.4449 6.41329 49.0147 6.26329 49.4549 6.15116C49.8955 6.0394 50.5237 5.88829 50.8514 5.81552C51.1792 5.74275 51.6402 5.64214 51.8756 5.59201C52.1113 5.54189 52.7228 5.42493 53.2349 5.33174C53.7469 5.23854 54.5011 5.11305 54.9107 5.05216C55.3204 4.99164 55.9237 4.9081 56.2514 4.86652C56.5791 4.8253 57.0819 4.76664 57.3686 4.73582C57.6554 4.70538 58.1834 4.65562 58.5417 4.62518C58.9003 4.59474 59.4783 4.5513 59.8265 4.52827C60.1747 4.50562 60.7698 4.47555 61.1486 4.46107C61.5277 4.44696 61.9383 4.44021 62.0612 4.44615ZM46.1065 5.7944C46.1374 5.79367 45.6931 5.94997 45.1196 6.14155C44.5461 6.33351 43.7752 6.60195 43.4065 6.73858C43.0378 6.87558 42.305 7.16037 41.7776 7.37237C41.2507 7.584 40.4128 7.93746 39.9156 8.15727C39.4188 8.37745 38.4844 8.81816 37.839 9.13637C37.194 9.45494 36.3642 9.87934 35.9955 10.0794C35.6269 10.2795 35.0321 10.6107 34.6735 10.8156C34.3152 11.0202 33.7119 11.3763 33.3328 11.6065C32.9541 11.8371 32.3634 12.2061 32.0208 12.4267C31.6782 12.6476 31.1419 13.0033 30.8295 13.2178C30.517 13.4321 30.018 13.7815 29.7208 13.9938C29.4236 14.2062 28.8706 14.6139 28.4915 14.9001C28.1127 15.186 27.5932 15.5874 27.337 15.7923C27.0811 15.9969 26.6368 16.3593 26.3501 16.598C26.0633 16.8364 25.6027 17.2288 25.326 17.4701C25.0496 17.7115 24.5551 18.1522 24.2274 18.4492C23.8996 18.7466 23.1116 19.5078 22.4759 20.1415C21.8405 20.7749 21.0097 21.6355 20.6298 22.0544C20.2496 22.4728 19.7155 23.0743 19.4429 23.391C19.17 23.7073 18.6248 24.3675 18.2315 24.8576C17.8378 25.3477 17.3153 26.016 17.0696 26.3427C16.8241 26.6695 16.4707 27.1488 16.2845 27.4076C16.098 27.6663 15.7032 28.2344 15.4075 28.6699C15.1118 29.1054 14.6951 29.7374 14.4813 30.0741C14.2675 30.4109 13.8825 31.0376 13.6255 31.4665C13.3685 31.8953 12.9622 32.597 12.7228 33.0259C12.4837 33.4547 11.9817 34.4156 11.6078 35.1608C11.2335 35.9059 10.7918 36.8167 10.6261 37.1843C10.4604 37.5518 10.1658 38.2283 9.97215 38.688C9.7785 39.1472 9.46009 39.9415 9.26531 40.4523C9.07017 40.9636 8.77447 41.7804 8.608 42.2679C8.44154 42.7554 8.20618 43.4734 8.08477 43.8637C7.96336 44.2535 7.78125 44.865 7.67958 45.2226C7.57829 45.5798 7.38538 46.3067 7.25131 46.8377C7.11762 47.3686 6.93216 48.1453 6.8398 48.5642C6.74744 48.9826 6.61151 49.6428 6.53777 50.0307C6.46403 50.4187 6.33815 51.1372 6.25772 51.6273C6.17727 52.1174 6.07002 52.8273 6.019 53.2052C5.96798 53.5828 5.88456 54.2846 5.83354 54.7646C5.78252 55.2443 5.71548 55.9628 5.68457 56.3612C5.65366 56.7592 5.60674 57.4275 5.58067 57.8463C5.55014 58.3279 5.533 59.4532 5.533 60.9094C5.533 62.3377 5.55088 63.4932 5.5803 63.9539C5.60599 64.3624 5.65254 65.0221 5.68345 65.4205C5.71473 65.8185 5.78214 66.537 5.83316 67.0171C5.88418 67.4967 5.96797 68.1985 6.01899 68.5764C6.07001 68.954 6.16982 69.6253 6.24058 70.0679C6.31133 70.5104 6.42864 71.1851 6.50126 71.5671C6.57388 71.9495 6.62602 72.2692 6.61709 72.2781C6.60815 72.287 6.57426 72.1804 6.54223 72.0412C6.5102 71.902 6.4171 71.504 6.33592 71.1568C6.25473 70.8096 6.1214 70.1996 6.03985 69.8016C5.95792 69.4032 5.82311 68.6933 5.74043 68.2236C5.65738 67.754 5.53077 66.9601 5.45926 66.46C5.38776 65.9595 5.28758 65.1743 5.23656 64.715C5.18591 64.2553 5.11813 63.5621 5.08648 63.1742C5.05445 62.7862 5.01237 62.2181 4.99263 61.9118C4.97252 61.6055 4.9364 60.717 4.91219 59.9369C4.8783 58.8405 4.8783 58.184 4.91293 57.0409C4.93751 56.2281 4.97363 55.3203 4.99299 55.0244C5.01236 54.7282 5.05482 54.1686 5.08684 53.7806C5.11849 53.3926 5.17808 52.7659 5.21867 52.3883C5.25963 52.0103 5.34343 51.3253 5.40525 50.866C5.46707 50.4064 5.58475 49.6297 5.66706 49.1396C5.74936 48.6495 5.89199 47.8724 5.98398 47.4131C6.07634 46.9534 6.23498 46.2183 6.33629 45.7794C6.43795 45.3406 6.59697 44.6886 6.69007 44.3314C6.7828 43.9739 6.94294 43.3891 7.04535 43.0319C7.14777 42.6744 7.34104 42.0313 7.47511 41.6025C7.60881 41.1736 7.85273 40.4385 8.01697 39.9688C8.18121 39.4991 8.47094 38.7139 8.66124 38.2238C8.85155 37.7337 9.11819 37.068 9.25375 36.7446C9.38931 36.4212 9.66266 35.7945 9.86152 35.3522C10.0604 34.91 10.4775 34.0383 10.7888 33.4156C11.1001 32.7926 11.5005 32.0159 11.6781 31.6891C11.8557 31.3624 12.2192 30.719 12.4859 30.2597C12.7525 29.8 13.1641 29.1151 13.4005 28.7374C13.637 28.3595 14.0787 27.6785 14.3822 27.224C14.6857 26.7696 15.1463 26.1013 15.4063 25.7389C15.6662 25.3765 16.0878 24.8043 16.3437 24.4676C16.5992 24.1305 17.0635 23.5376 17.3757 23.1496C17.6874 22.7616 18.2043 22.1404 18.5242 21.7691C18.8441 21.3979 19.368 20.8045 19.6887 20.4511C20.009 20.0972 20.8849 19.1973 21.6349 18.4509C22.64 17.4503 23.1488 16.974 23.5703 16.6387C23.885 16.3881 24.4045 15.9867 24.7248 15.7465C25.0451 15.5063 25.6424 15.0708 26.0521 14.7786C26.4617 14.4867 27.1571 14.0103 27.5976 13.7204C28.0378 13.4304 28.6831 13.0172 29.0314 12.8022C29.3796 12.5872 29.9829 12.2267 30.3721 12.0017C30.7612 11.7764 31.4066 11.414 31.8058 11.1964C32.2051 10.9784 32.8925 10.6194 33.3327 10.3981C33.7733 10.1768 34.5021 9.82449 34.9527 9.61582C35.4033 9.40678 36.1742 9.06446 36.6658 8.85508C37.1574 8.64605 37.957 8.32266 38.4429 8.13662C38.9285 7.9506 39.6324 7.69108 40.0071 7.56001C40.3813 7.42895 41.0818 7.19578 41.563 7.04133C42.0445 6.88724 42.7987 6.65816 43.2389 6.53229C43.6794 6.4068 44.492 6.18959 45.0451 6.04999C45.5981 5.91002 46.076 5.79551 46.1065 5.7944ZM77.1486 6.09106C77.1698 6.08992 77.5888 6.19687 78.0796 6.32831C78.5704 6.45974 79.3826 6.69254 79.8843 6.84587C80.3863 6.99884 81.1669 7.24946 81.619 7.4028C82.0714 7.55615 82.7768 7.80639 83.1868 7.95899C83.5969 8.11122 84.2408 8.36109 84.6177 8.51406C84.9946 8.66666 85.5711 8.908 85.8987 9.0502C86.2548 9.20428 86.7944 9.4846 87.2394 9.74636C87.6491 9.98695 88.2777 10.3679 88.636 10.5925C88.9946 10.8171 89.6147 11.2185 90.0139 11.4847C90.4135 11.7509 91 12.1526 91.3173 12.3777C91.635 12.6023 92.1962 13.0122 92.5649 13.2881C92.9336 13.5636 93.4363 13.9478 93.6821 14.1416C93.9279 14.3354 94.4139 14.7297 94.7621 15.0182C95.1103 15.3063 95.6131 15.7325 95.8794 15.965C96.1456 16.1974 96.6569 16.6559 97.0152 16.9834C97.3738 17.3113 98.103 18.0141 98.6363 18.5454C99.1696 19.0764 99.9055 19.8368 100.272 20.2352C100.637 20.6332 101.233 21.303 101.595 21.7229C101.956 22.1432 102.513 22.8115 102.83 23.2081C103.148 23.605 103.568 24.1381 103.763 24.3936C103.957 24.6486 104.255 25.0496 104.425 25.2847C104.595 25.5193 104.709 25.6864 104.678 25.6559C104.647 25.6251 104.32 25.2241 103.952 24.7649C103.584 24.3052 103.059 23.6703 102.786 23.354C102.512 23.0373 102.07 22.5367 101.803 22.2408C101.535 21.9453 101.15 21.5276 100.946 21.3126C100.743 21.098 100.349 20.6907 100.071 20.4082C99.7935 20.1253 99.239 19.5825 98.839 19.2015C98.439 18.8206 97.8689 18.2915 97.5724 18.026C97.276 17.7606 96.908 17.4338 96.7546 17.3001C96.6008 17.1665 96.266 16.8813 96.0098 16.666C95.7539 16.451 95.2511 16.0411 94.8925 15.7552C94.5343 15.4697 93.9056 14.9852 93.496 14.6789C93.0863 14.3722 92.4581 13.9159 92.0994 13.6645C91.7412 13.4135 91.0872 12.9702 90.647 12.6799C90.2069 12.3895 89.516 11.9492 89.1123 11.7012C88.7083 11.4532 88.0588 11.0674 87.6689 10.8432C87.279 10.6193 86.6123 10.2487 86.1874 10.0192C85.7625 9.79016 84.8952 9.34833 84.2602 9.03754C83.6252 8.72678 82.7452 8.31353 82.305 8.11934C81.8649 7.92516 81.2448 7.65858 80.9271 7.52677C80.6098 7.39496 79.9894 7.14917 79.5492 6.98024C79.109 6.81093 78.3799 6.54212 77.9292 6.38284C77.4786 6.22319 77.1273 6.0918 77.1486 6.09106ZM36.4459 6.46635C36.4664 6.46561 36.2653 6.57365 35.999 6.70657C35.7327 6.83986 35.2132 7.10385 34.8445 7.29358C34.4759 7.48367 33.8811 7.80186 33.5225 8.00122C33.1642 8.2006 32.5859 8.53104 32.2377 8.73598C31.8895 8.94093 31.3197 9.28734 30.9715 9.50566C30.6233 9.72398 30.0703 10.0774 29.7425 10.2913C29.4148 10.5052 28.8282 10.9024 28.4391 11.1742C28.0499 11.446 27.3777 11.9324 26.9449 12.255C26.5126 12.5777 25.8255 13.1079 25.4181 13.4335C25.011 13.7587 24.3593 14.2971 23.9701 14.6297C23.581 14.9624 23.1036 15.3794 22.9088 15.5568C22.7144 15.7339 22.2366 16.1438 21.8474 16.4676C21.4582 16.7914 20.9387 17.2325 20.6929 17.4486C20.4471 17.6643 19.9444 18.1158 19.5757 18.4518C19.207 18.7878 18.4443 19.523 17.8805 20.0854C17.3167 20.6479 16.5871 21.4002 16.259 21.7577C15.9306 22.1149 15.4777 22.6161 15.2528 22.8715C15.0275 23.1266 14.5996 23.6279 14.3017 23.9854C14.0034 24.3426 13.5617 24.8858 13.3193 25.1921C13.0772 25.4984 12.6418 26.0665 12.3517 26.4544C12.0616 26.8424 11.6434 27.4168 11.4222 27.7309C11.201 28.045 10.7477 28.7133 10.4152 29.216C10.0826 29.7188 9.60144 30.4725 9.34565 30.8913C9.09017 31.3097 8.70398 31.9614 8.48763 32.3393C8.27089 32.7173 7.93385 33.327 7.73832 33.6945C7.54243 34.0621 7.36553 34.3881 7.34468 34.4185C7.31861 34.4568 7.31787 34.4419 7.34281 34.3703C7.36254 34.3131 7.62956 33.7699 7.93606 33.1636C8.24218 32.5569 8.71665 31.6599 8.99033 31.1698C9.26368 30.6797 9.71767 29.8974 9.99845 29.4314C10.2796 28.9651 10.712 28.2719 10.9589 27.8906C11.2062 27.5089 11.611 26.9045 11.8586 26.5473C12.1059 26.1897 12.5211 25.605 12.7811 25.2478C13.041 24.8902 13.5013 24.2806 13.8041 23.8926C14.1068 23.5046 14.5478 22.9532 14.7843 22.6673C15.0204 22.3815 15.4077 21.9229 15.6446 21.6482C15.8814 21.3734 16.249 20.9558 16.4613 20.72C16.6735 20.4842 17.2236 19.8965 17.6835 19.4145C18.1438 18.9322 18.9251 18.1533 19.4205 17.6836C19.9154 17.2139 20.5302 16.6418 20.7861 16.4127C21.0423 16.1836 21.5618 15.7336 21.9406 15.4128C22.3197 15.0916 22.9275 14.5922 23.2917 14.3023C23.6559 14.0123 24.2175 13.5775 24.5393 13.3362C24.8614 13.0949 25.4264 12.682 25.795 12.4187C26.1637 12.1559 26.9264 11.6376 27.4895 11.2677C28.053 10.8976 28.7903 10.4271 29.1281 10.2218C29.4663 10.0165 30.0193 9.68975 30.3571 9.49519C30.6952 9.30101 31.2229 9.00435 31.5302 8.83579C31.8374 8.66685 32.5581 8.29259 33.1315 8.00373C33.705 7.7145 34.5095 7.3254 34.9191 7.13862C35.3288 6.95187 35.8315 6.72464 36.0363 6.63367C36.2412 6.54271 36.4254 6.46746 36.4459 6.46635ZM83.8366 6.50905C83.8682 6.5187 84.2618 6.69098 84.7117 6.89184C85.1616 7.09271 86.0584 7.5182 86.7049 7.83789C87.3514 8.15757 88.1644 8.57378 88.511 8.7635C88.8581 8.95285 89.3892 9.24877 89.6912 9.42105C89.9933 9.59332 90.2405 9.7385 90.2405 9.74369C90.2405 9.7489 89.851 9.55917 89.3747 9.32191C88.8984 9.08466 88.1677 8.73416 87.7506 8.54261C87.3335 8.3514 86.7049 8.0358 86.3541 7.84164C86.0029 7.64709 85.2801 7.26392 84.7475 6.98989C84.2149 6.71588 83.8049 6.49939 83.8366 6.50905ZM98.102 16.2453C98.2536 16.3648 98.5873 16.6299 98.8431 16.8338C99.0993 17.038 99.4512 17.3227 99.6252 17.4668C99.7995 17.6109 100.202 17.9532 100.519 18.2275C100.837 18.5023 101.39 18.9942 101.748 19.321C102.107 19.6481 102.894 20.4096 103.499 21.0129C104.103 21.6166 104.894 22.436 105.255 22.8344C105.616 23.2324 106.142 23.8257 106.422 24.1525C106.703 24.4792 107.131 24.9886 107.373 25.2849C107.615 25.5808 107.977 26.0572 108.176 26.3431C108.376 26.629 108.732 27.1551 108.968 27.5126C109.203 27.8698 109.582 28.4631 109.81 28.8307C110.039 29.1983 110.377 29.7578 110.563 30.0745C110.748 30.3908 111.026 30.8765 111.18 31.1534C111.335 31.4304 111.65 32.0152 111.881 32.4529C112.112 32.8907 112.442 33.5411 112.614 33.8987C112.787 34.2559 113.087 34.8986 113.282 35.3263C113.477 35.754 113.782 36.4558 113.962 36.8857C114.141 37.3157 114.409 37.9847 114.558 38.3727C114.707 38.7607 114.969 39.4773 115.14 39.9652C115.311 40.453 115.551 41.1715 115.673 41.5617C115.796 41.9519 115.99 42.5968 116.105 42.9952C116.22 43.3932 116.405 44.0701 116.516 44.4989C116.626 44.9278 116.808 45.6878 116.92 46.1883C117.031 46.6884 117.182 47.4068 117.254 47.7848C117.327 48.1628 117.437 48.7725 117.499 49.14C117.561 49.5076 117.661 50.1592 117.722 50.588C117.782 51.0168 117.866 51.6599 117.907 52.0175C117.948 52.3746 118.016 53.043 118.056 53.5026C118.097 53.9619 118.148 54.6302 118.17 54.9877C118.192 55.3449 118.226 56.0633 118.246 56.5843C118.265 57.1048 118.282 57.9402 118.282 58.4407C118.282 58.9408 118.266 59.8097 118.245 60.3714C118.225 60.9328 118.183 61.7767 118.152 62.2464C118.121 62.7161 118.07 63.3676 118.039 63.6944C118.008 64.0211 117.949 64.5807 117.909 64.9382C117.868 65.2954 117.792 65.8969 117.74 66.2748C117.688 66.6524 117.578 67.3627 117.496 67.8528C117.414 68.3429 117.264 69.1508 117.164 69.6487C117.063 70.1462 116.896 70.9148 116.791 71.3566C116.687 71.7981 116.552 72.3517 116.49 72.5867C116.429 72.8213 116.311 73.2557 116.229 73.552C116.148 73.8479 116.006 74.341 115.914 74.6473C115.822 74.9536 115.695 75.3628 115.632 75.557C115.569 75.7508 115.393 76.2772 115.24 76.7265C115.086 77.1758 114.822 77.9128 114.651 78.3643C114.481 78.8154 114.229 79.4588 114.092 79.7937C113.955 80.1282 113.683 80.7612 113.488 81.2005C113.294 81.6394 112.968 82.3496 112.765 82.7785C112.562 83.2073 112.176 83.9759 111.908 84.4864C111.639 84.9969 111.271 85.6778 111.089 85.9994C110.908 86.3209 110.615 86.8307 110.439 87.1318C110.263 87.4329 110.105 87.6939 110.089 87.7117C110.072 87.7292 110.297 87.2699 110.589 86.6907C110.88 86.1115 111.241 85.37 111.391 85.0433C111.541 84.7166 111.803 84.1303 111.972 83.7405C112.142 83.3506 112.432 82.6544 112.617 82.1933C112.802 81.7325 113.086 80.9907 113.249 80.5448C113.412 80.0989 113.69 79.2932 113.868 78.7541C114.046 78.2153 114.316 77.3391 114.47 76.807C114.624 76.275 114.848 75.4459 114.968 74.9651C115.089 74.4839 115.247 73.8312 115.318 73.5149C115.39 73.1982 115.516 72.6052 115.599 72.1968C115.681 71.7884 115.808 71.1115 115.88 70.6931C115.952 70.2743 116.06 69.5893 116.121 69.1708C116.181 68.752 116.273 68.0503 116.324 67.6114C116.376 67.1722 116.444 66.5373 116.475 66.2006C116.506 65.8634 116.556 65.2285 116.587 64.7897C116.617 64.3504 116.661 63.4816 116.685 62.859C116.713 62.1561 116.72 61.128 116.706 60.1486C116.693 59.2806 116.666 58.2866 116.645 57.9394C116.625 57.5923 116.582 56.9741 116.55 56.5657C116.518 56.1573 116.452 55.4221 116.403 54.932C116.354 54.4419 116.304 53.8988 116.29 53.7254C116.277 53.5516 116.234 53.0838 116.193 52.6858C116.154 52.2874 116.079 51.6276 116.028 51.2192C115.976 50.8108 115.875 50.0923 115.803 49.6227C115.731 49.153 115.588 48.3258 115.486 47.7848C115.384 47.2438 115.208 46.3913 115.096 45.8912C114.983 45.3907 114.806 44.6474 114.702 44.239C114.598 43.8306 114.389 43.0628 114.236 42.5326C114.084 42.0024 113.807 41.1083 113.622 40.5462C113.436 39.9837 113.16 39.1832 113.008 38.7674C112.856 38.3511 112.609 37.6995 112.458 37.3193C112.308 36.9388 112.03 36.2683 111.842 35.8294C111.653 35.3905 111.355 34.7222 111.18 34.3442C111.005 33.9663 110.653 33.2397 110.397 32.7292C110.141 32.2186 109.755 31.4757 109.54 31.0781C109.324 30.6804 108.94 29.9973 108.685 29.5599C108.431 29.1225 108.028 28.4538 107.791 28.0736C107.553 27.6934 107.113 27.015 106.812 26.5658C106.512 26.1166 106.119 25.54 105.938 25.2849C105.758 25.0294 105.45 24.6035 105.253 24.3381C105.057 24.0726 104.696 23.5963 104.452 23.2799C104.208 22.9632 103.798 22.4453 103.54 22.129C103.282 21.8122 102.821 21.2631 102.515 20.9085C102.209 20.5536 101.7 19.9774 101.383 19.6276C101.066 19.2778 100.136 18.3247 99.3168 17.5094C98.417 16.6154 97.9356 16.1139 98.102 16.2453ZM10.2974 31.671C10.3034 31.671 10.0989 32.0846 9.8431 32.5899C9.58725 33.0952 9.21148 33.8682 9.00852 34.3071C8.80518 34.746 8.51284 35.3976 8.35866 35.7551C8.20449 36.1123 7.92815 36.7806 7.74456 37.2403C7.56134 37.6995 7.27197 38.46 7.10141 38.9296C6.93084 39.3993 6.66271 40.176 6.50518 40.6561C6.34802 41.1362 6.09366 41.963 5.93985 42.494C5.78642 43.0249 5.5626 43.8436 5.44306 44.3133C5.32315 44.7829 5.1496 45.5095 5.05687 45.9284C4.96414 46.3468 4.82858 46.9903 4.75596 47.3578C4.68334 47.7254 4.5571 48.4186 4.47591 48.8986C4.39472 49.3787 4.27779 50.1387 4.21597 50.588C4.15414 51.0372 4.06998 51.7056 4.02902 52.0731C3.98805 52.4407 3.93815 52.9252 3.91767 53.1499C3.89719 53.3745 3.86367 53.7755 3.84319 54.0409C3.82271 54.3064 3.78807 54.814 3.7661 55.1686C3.7445 55.5231 3.71173 56.4421 3.69348 57.2106C3.67337 58.0542 3.67374 59.1302 3.69495 59.9258C3.71395 60.6506 3.75528 61.6363 3.78619 62.1164C3.81747 62.5961 3.87669 63.3565 3.91766 63.8058C3.959 64.255 4.04279 65.0317 4.10386 65.5322C4.16493 66.0323 4.27443 66.8262 4.34742 67.2958C4.42004 67.7655 4.54628 68.5088 4.62747 68.9481C4.70865 69.3869 4.85948 70.1388 4.96264 70.6188C5.06579 71.0985 5.25945 71.9258 5.39277 72.4567C5.5261 72.9876 5.74321 73.7978 5.87467 74.2574C6.0065 74.7167 6.22548 75.4437 6.36141 75.8725C6.49696 76.3014 6.73754 77.0198 6.89582 77.4691C7.05409 77.9183 7.2794 78.5365 7.39634 78.8428C7.5129 79.1491 7.74752 79.742 7.91771 80.1609C8.0879 80.5797 8.40855 81.3316 8.63052 81.8317C8.85248 82.3318 9.34781 83.3677 9.73101 84.1336C10.1142 84.8992 10.6192 85.8683 10.8531 86.2871C11.0866 86.7059 11.4255 87.2988 11.6057 87.6051C11.7856 87.9115 12.1208 88.4628 12.3501 88.8304C12.5795 89.198 12.9259 89.7412 13.1199 90.0375C13.314 90.3338 13.6879 90.8851 13.9508 91.2627C14.2141 91.6403 14.6383 92.2333 14.8941 92.5804C15.1499 92.9275 15.5909 93.5123 15.8746 93.8799C16.158 94.2475 16.6671 94.9209 17.0059 95.3762C17.3448 95.8317 17.8174 96.45 18.0561 96.7499C18.2948 97.0503 18.7 97.5463 18.9559 97.8526C19.2121 98.1589 19.5819 98.5933 19.7778 98.8176C19.9737 99.0422 20.3837 99.5015 20.6887 99.8386C20.9934 100.176 21.9013 101.107 22.7057 101.907C23.8919 103.087 24.1041 103.312 23.8274 103.098C23.6397 102.952 23.2264 102.623 22.9087 102.366C22.5914 102.11 22.0886 101.692 21.7914 101.438C21.4946 101.185 20.9248 100.684 20.5252 100.325C20.126 99.9671 19.2445 99.1225 18.5667 98.4478C17.8893 97.7732 17.0719 96.9322 16.7508 96.5784C16.4298 96.2249 15.9051 95.6316 15.5852 95.2603C15.2649 94.889 14.707 94.2178 14.3454 93.7685C13.9842 93.3192 13.4449 92.6257 13.1473 92.2277C12.8498 91.8293 12.4238 91.2445 12.2006 90.9282C11.9779 90.6115 11.5255 89.9431 11.1955 89.443C10.8656 88.9425 10.4522 88.2994 10.2764 88.0136C10.1006 87.7277 9.82283 87.2662 9.6586 86.9881C9.49474 86.71 9.18005 86.1586 8.95993 85.7628C8.73983 85.367 8.34507 84.6256 8.08329 84.1151C7.82111 83.6046 7.46248 82.8794 7.28595 82.5033C7.1098 82.1276 6.82156 81.4927 6.64578 81.0924C6.47037 80.6926 6.18437 80.0142 6.01045 79.5854C5.83653 79.1565 5.56355 78.4537 5.40379 78.0238C5.24403 77.5938 4.98743 76.8673 4.83363 76.4087C4.67982 75.9505 4.44408 75.212 4.30965 74.768C4.17483 74.3239 3.96442 73.5873 3.84189 73.131C3.71937 72.6746 3.53577 71.9507 3.43448 71.5225C3.33319 71.0941 3.16448 70.3274 3.06021 69.8184C2.95556 69.3097 2.81218 68.5589 2.74142 68.1502C2.67066 67.7418 2.56304 67.0645 2.50233 66.6461C2.442 66.2273 2.3664 65.6677 2.33512 65.4023C2.30384 65.1368 2.26176 64.6857 2.24202 64.3998C2.22191 64.1139 2.18578 63.4289 2.16195 62.8775C2.1344 62.2438 2.1262 61.2198 2.13961 60.0929C2.15152 59.1127 2.1869 57.9179 2.21856 57.4382C2.25021 56.9581 2.30198 56.2731 2.33363 55.9159C2.36529 55.5584 2.4245 54.9654 2.46546 54.5979C2.50605 54.2303 2.58165 53.6203 2.63305 53.2427C2.68481 52.8647 2.78536 52.1964 2.85649 51.7575C2.92763 51.3183 3.0535 50.6084 3.13618 50.1796C3.21885 49.7507 3.3708 49.0252 3.47395 48.5671C3.57674 48.1089 3.75102 47.3823 3.86088 46.952C3.97075 46.5217 4.16216 45.8144 4.28618 45.38C4.41019 44.9456 4.62172 44.2449 4.75653 43.8224C4.89134 43.4003 5.12448 42.7034 5.27493 42.2735C5.42501 41.8431 5.67639 41.1574 5.83354 40.749C5.9907 40.3406 6.23723 39.7224 6.38136 39.3752C6.52548 39.0281 6.76904 38.46 6.9221 38.1129C7.07553 37.7657 7.39953 37.0658 7.64234 36.5579C7.88478 36.05 8.2922 35.2395 8.54691 34.7572C8.80201 34.2749 9.15655 33.621 9.33494 33.3047C9.51295 32.988 9.80008 32.4912 9.9725 32.2001C10.1449 31.909 10.2911 31.671 10.2974 31.671ZM118.384 47.052C118.396 47.0642 118.397 47.0965 118.386 47.1232C118.374 47.1529 118.366 47.144 118.364 47.1006C118.363 47.0616 118.371 47.0397 118.384 47.052ZM118.476 47.4318C118.514 47.5747 118.615 47.9924 118.699 48.36C118.783 48.7276 118.918 49.3539 118.999 49.7523C119.08 50.1503 119.213 50.8606 119.294 51.3303C119.374 51.8 119.482 52.4682 119.532 52.8154C119.582 53.1626 119.657 53.7221 119.698 54.0592C119.739 54.396 119.807 55.0142 119.849 55.433C119.891 55.8514 119.95 56.5532 119.98 56.9924C120.01 57.4312 120.055 58.2585 120.078 58.8303C120.104 59.4666 120.113 60.5467 120.1 61.6149C120.089 62.5747 120.053 63.7691 120.021 64.2696C119.989 64.7697 119.937 65.4715 119.906 65.829C119.874 66.1862 119.807 66.8512 119.756 67.3063C119.705 67.7615 119.612 68.4882 119.55 68.9214C119.488 69.3543 119.379 70.0479 119.308 70.4626C119.237 70.877 119.103 71.5955 119.01 72.0592C118.916 72.5225 118.782 73.1526 118.711 73.4589C118.64 73.7652 118.467 74.4669 118.326 75.0183C118.184 75.5697 117.975 76.3382 117.86 76.7262C117.745 77.1142 117.558 77.7239 117.444 78.0814C117.33 78.4386 117.114 79.082 116.964 79.5109C116.814 79.9397 116.55 80.6581 116.377 81.1074C116.203 81.5566 115.932 82.2331 115.774 82.6111C115.616 82.9887 115.309 83.6904 115.091 84.1705C114.874 84.6502 114.474 85.4856 114.203 86.0269C113.933 86.5679 113.557 87.2948 113.369 87.642C113.18 87.9892 112.835 88.6047 112.601 89.0102C112.367 89.4157 112.015 90.0089 111.818 90.3283C111.62 90.648 111.276 91.1934 111.052 91.5405C110.828 91.8877 110.43 92.4817 110.167 92.8608C109.905 93.2399 109.477 93.8413 109.216 94.1974C108.955 94.5535 108.514 95.1371 108.235 95.4947C107.957 95.8519 107.488 96.4367 107.192 96.7942C106.897 97.1514 106.428 97.7027 106.15 98.0194C105.872 98.3358 105.368 98.8953 105.029 99.2628C104.691 99.63 104.004 100.34 103.502 100.841C102.999 101.341 102.287 102.026 101.919 102.363C101.55 102.701 101.048 103.153 100.802 103.37C100.556 103.586 100.036 104.029 99.6447 104.354C99.2541 104.678 98.6091 105.197 98.211 105.506C97.8132 105.815 97.1779 106.293 96.7987 106.568C96.42 106.843 95.8249 107.264 95.4767 107.503C95.1285 107.743 94.5252 108.144 94.136 108.394C93.7468 108.645 93.0598 109.072 92.6091 109.343C92.1585 109.614 91.3708 110.069 90.8588 110.354C90.3467 110.638 89.3665 111.151 88.6802 111.492C87.9938 111.834 87.0699 112.275 86.6267 112.472C86.1835 112.67 85.5214 112.956 85.1557 113.107C84.79 113.259 84.1554 113.512 83.7457 113.67C83.3361 113.827 82.6315 114.086 82.1797 114.245C81.728 114.404 81.0324 114.637 80.6342 114.764C80.2357 114.89 79.4805 115.116 78.9558 115.266C78.4314 115.416 77.5875 115.641 77.0807 115.767C76.5738 115.892 76.1534 115.988 76.1463 115.981C76.1388 115.974 76.48 115.855 76.9042 115.716C77.3283 115.577 78.0668 115.322 78.545 115.149C79.0231 114.976 79.8361 114.666 80.3512 114.46C80.8662 114.254 81.6732 113.915 82.1443 113.706C82.6154 113.497 83.2775 113.196 83.6153 113.036C83.9531 112.877 84.5568 112.58 84.956 112.376C85.3556 112.173 85.9756 111.848 86.3339 111.654C86.6926 111.46 87.2203 111.168 87.507 111.004C87.7938 110.84 88.304 110.54 88.641 110.338C88.9777 110.135 89.556 109.777 89.9258 109.542C90.2956 109.308 90.9585 108.87 91.3987 108.569C91.8393 108.269 92.4843 107.816 92.8325 107.564C93.1807 107.311 93.8008 106.845 94.2104 106.527C94.6201 106.21 95.1816 105.766 95.458 105.54C95.7347 105.314 96.1369 104.98 96.3518 104.797C96.567 104.613 97.0363 104.203 97.3945 103.885C97.7532 103.567 98.1971 103.183 98.3814 103.032C98.5658 102.881 98.9512 102.556 99.238 102.311C99.5247 102.066 100.002 101.647 100.299 101.381C100.596 101.115 101.123 100.627 101.472 100.298C101.82 99.969 102.449 99.3508 102.87 98.9246C103.29 98.498 103.91 97.8486 104.248 97.481C104.585 97.1135 105.073 96.5703 105.329 96.2744C105.587 95.9781 105.998 95.4935 106.244 95.1976C106.49 94.9013 106.85 94.4588 107.045 94.2137C107.239 93.9687 107.625 93.4674 107.901 93.0999C108.178 92.7323 108.578 92.1895 108.791 91.8932C109.004 91.5973 109.431 90.9791 109.74 90.5194C110.049 90.0602 110.522 89.3332 110.789 88.9044C111.057 88.4755 111.484 87.7652 111.739 87.3264C111.994 86.8871 112.397 86.1687 112.634 85.7299C112.871 85.2906 113.232 84.5974 113.436 84.189C113.641 83.7806 113.968 83.1041 114.163 82.6853C114.357 82.2665 114.629 81.6654 114.767 81.3487C114.905 81.032 115.139 80.4724 115.288 80.1049C115.437 79.7373 115.687 79.0979 115.843 78.6843C116 78.2707 116.279 77.4855 116.464 76.9393C116.649 76.3931 116.9 75.6205 117.021 75.2225C117.142 74.8241 117.324 74.1977 117.426 73.8302C117.528 73.4626 117.688 72.8589 117.781 72.4883C117.874 72.1178 118.034 71.4409 118.135 70.9846C118.236 70.5279 118.37 69.8953 118.431 69.5789C118.493 69.2622 118.594 68.7109 118.657 68.3537C118.719 67.9962 118.811 67.4281 118.862 67.0913C118.913 66.7542 119.005 66.0777 119.066 65.5876C119.127 65.0972 119.211 64.3286 119.253 63.8797C119.295 63.4305 119.354 62.6868 119.384 62.2275C119.414 61.7678 119.458 60.8073 119.481 60.0926C119.505 59.3522 119.513 58.2978 119.5 57.6421C119.486 57.0091 119.459 56.157 119.439 55.7486C119.419 55.3401 119.386 54.7721 119.366 54.4862C119.345 54.2003 119.294 53.5988 119.253 53.1496C119.211 52.7003 119.144 52.0569 119.104 51.7201C119.063 51.383 118.997 50.865 118.955 50.5691C118.914 50.2728 118.83 49.7163 118.769 49.332C118.707 48.9473 118.598 48.3217 118.527 47.9415C118.457 47.561 118.4 47.232 118.402 47.2109C118.404 47.1893 118.437 47.2888 118.476 47.4318ZM6.65861 72.3373C6.67127 72.3495 6.67239 72.3818 6.66156 72.4086C6.64964 72.4383 6.64108 72.4294 6.63922 72.3859C6.63774 72.3469 6.64632 72.325 6.65861 72.3373ZM110.143 84.7647C110.152 84.7647 110.087 84.9191 109.999 85.1081C109.911 85.2971 109.684 85.7605 109.494 86.1384C109.304 86.516 108.973 87.1513 108.758 87.5493C108.543 87.9473 108.199 88.5655 107.993 88.9231C107.787 89.2803 107.477 89.8067 107.303 90.0926C107.128 90.3785 106.794 90.9132 106.56 91.2807C106.325 91.6483 105.898 92.2914 105.61 92.7102C105.322 93.1286 104.887 93.7446 104.643 94.0787C104.399 94.4129 103.971 94.981 103.693 95.3411C103.415 95.7012 102.968 96.2634 102.7 96.5901C102.432 96.9169 101.996 97.4348 101.731 97.7411C101.466 98.0474 101.029 98.5401 100.759 98.8364C100.49 99.1323 99.9724 99.6837 99.61 100.062C99.2477 100.439 98.5706 101.114 98.1055 101.56C97.6404 102.006 97.0672 102.525 96.8315 102.712C96.5961 102.9 96.1604 103.238 95.8632 103.465C95.5664 103.69 95.0145 104.097 94.6369 104.368C94.2596 104.64 93.5974 105.099 93.1658 105.39C92.7342 105.68 92.1465 106.065 91.8598 106.245C91.573 106.426 91.0617 106.739 90.7239 106.943C90.3862 107.146 89.8078 107.483 89.4391 107.691C89.0704 107.899 88.4839 108.221 88.1357 108.408C87.7875 108.594 87.0251 108.98 86.4412 109.265C85.8573 109.55 85.0391 109.935 84.6224 110.121C84.206 110.306 83.8541 110.457 83.8403 110.457C83.8269 110.457 84.2682 110.225 84.8212 109.943C85.3742 109.661 86.1366 109.258 86.5157 109.048C86.8948 108.838 87.5316 108.474 87.9308 108.238C88.3304 108.002 88.9252 107.643 89.2529 107.438C89.5806 107.235 90.1944 106.838 90.617 106.557C91.0393 106.276 91.6177 105.882 91.9018 105.683C92.186 105.483 92.6448 105.154 92.9212 104.95C93.1979 104.746 93.6839 104.378 94.0011 104.132C94.3188 103.885 94.8048 103.5 95.0811 103.276C95.3578 103.052 95.7515 102.726 95.9563 102.552C96.1611 102.378 96.589 102.008 96.9074 101.729C97.2258 101.45 97.7621 100.966 98.0991 100.653C98.4362 100.34 99.1061 99.6893 99.5873 99.2073C100.069 98.725 100.731 98.0393 101.06 97.6832C101.389 97.3271 101.843 96.8266 102.069 96.5715C102.295 96.3161 102.738 95.7981 103.054 95.4206C103.37 95.0426 103.842 94.4626 104.103 94.1318C104.363 93.8006 104.817 93.2073 105.111 92.8138C105.405 92.4198 105.844 91.8135 106.087 91.4664C106.33 91.1192 106.733 90.5259 106.982 90.1483C107.231 89.7703 107.628 89.1521 107.863 88.7746C108.098 88.3966 108.483 87.7535 108.719 87.3451C108.956 86.9367 109.292 86.3415 109.467 86.0226C109.642 85.7033 109.863 85.29 109.957 85.1036C110.051 84.9173 110.134 84.7647 110.143 84.7647ZM12.727 93.7129C12.7848 93.7838 13.0942 94.1681 13.4141 94.5669C13.7344 94.966 14.2554 95.5931 14.5715 95.9607C14.8881 96.3282 15.3819 96.8877 15.6687 97.2045C15.9558 97.5208 16.5241 98.1234 16.9319 98.5433C17.3397 98.9632 17.9668 99.59 18.3251 99.936C18.6838 100.282 19.1869 100.757 19.4438 100.992C19.7004 101.227 20.1696 101.645 20.4866 101.921C20.8031 102.198 21.2634 102.591 21.5092 102.796C21.755 103.001 22.241 103.395 22.5892 103.67C22.9374 103.946 23.524 104.397 23.8927 104.673C24.2614 104.948 24.8479 105.375 25.1961 105.622C25.5443 105.868 26.2735 106.361 26.8161 106.718C27.3591 107.075 28.264 107.644 28.8271 107.98C29.3906 108.317 30.2367 108.805 30.7078 109.064C31.1789 109.323 32.0421 109.775 32.6257 110.067C33.2096 110.36 33.9805 110.734 34.3388 110.898C34.6974 111.062 35.1748 111.3 35.4002 111.425C35.6255 111.551 36.2206 111.869 36.7222 112.132C37.2239 112.395 38.0368 112.8 38.5284 113.033C39.02 113.266 39.7492 113.6 40.1484 113.774C40.5476 113.949 41.126 114.195 41.4332 114.322C41.7405 114.448 42.2514 114.652 42.5691 114.775C42.8867 114.898 43.582 115.155 44.1146 115.345C44.6471 115.535 45.0672 115.692 45.0478 115.693C45.0288 115.694 44.7857 115.635 44.5078 115.562C44.23 115.489 43.7935 115.371 43.5373 115.299C43.2815 115.227 42.7199 115.062 42.2898 114.932C41.8596 114.802 41.139 114.571 40.6884 114.419C40.2378 114.268 39.5004 114.006 39.0498 113.838C38.5992 113.671 37.9705 113.428 37.6533 113.3C37.3356 113.171 36.8328 112.962 36.536 112.835C36.2388 112.708 35.7365 112.487 35.4188 112.344C35.1011 112.201 34.3891 111.863 33.836 111.592C33.283 111.321 32.5169 110.931 32.1337 110.725C31.7505 110.52 31.1889 110.211 30.8862 110.038C30.5834 109.866 30.059 109.559 29.7209 109.356C29.3831 109.153 28.8971 108.856 28.6409 108.696C28.3851 108.537 27.8235 108.171 27.3933 107.885C26.9632 107.599 26.2511 107.106 25.8106 106.791C25.3704 106.475 24.725 105.999 24.3768 105.733C24.0286 105.466 23.4756 105.031 23.1478 104.765C22.8201 104.5 22.2679 104.039 21.9208 103.742C21.5733 103.445 21.0035 102.944 20.6546 102.629C20.3052 102.315 19.4323 101.471 18.7143 100.754C17.9963 100.037 17.1308 99.1415 16.7911 98.7639C16.4515 98.386 15.9517 97.8179 15.6806 97.5016C15.4095 97.1849 14.9179 96.5919 14.5887 96.1835C14.2595 95.7751 13.7199 95.0801 13.3895 94.6389C13.0592 94.1978 12.7516 93.7802 12.7058 93.7107L12.6221 93.5838L12.727 93.7129ZM35.6216 110.078C36.0201 110.276 36.3414 110.443 36.3363 110.448C36.3307 110.453 36.1549 110.383 35.946 110.291C35.7371 110.199 35.4153 110.039 35.2317 109.935C35.0478 109.831 34.8973 109.739 34.8973 109.731C34.8973 109.723 35.2231 109.879 35.6216 110.078ZM80.4991 113.063C80.5196 113.063 80.4463 113.104 80.3357 113.153C80.2254 113.203 79.7729 113.385 79.3301 113.556C78.8877 113.728 78.1485 114.001 77.6875 114.165C77.2268 114.328 76.4976 114.573 76.0675 114.709C75.6373 114.846 74.9167 115.063 74.4661 115.192C74.0155 115.321 73.2446 115.528 72.753 115.651C72.2614 115.775 71.5575 115.943 71.1889 116.024C70.8202 116.105 70.1752 116.239 69.7551 116.321C69.3354 116.403 68.6397 116.529 68.2096 116.6C67.7795 116.672 67.1258 116.772 66.7572 116.824C66.3885 116.876 65.802 116.951 65.4538 116.992C65.1055 117.032 64.5525 117.09 64.2248 117.121C63.8971 117.152 63.2688 117.203 62.8283 117.234C62.3881 117.265 61.6421 117.307 61.171 117.328C60.7003 117.348 60.2143 117.357 60.091 117.347C59.9681 117.337 59.6248 117.311 59.3276 117.29C59.0308 117.269 58.5112 117.226 58.1731 117.196C57.8353 117.165 57.1985 117.098 56.758 117.047C56.3178 116.995 55.5636 116.895 55.0821 116.823C54.601 116.751 53.8383 116.626 53.3876 116.544C52.937 116.463 52.2082 116.321 51.7676 116.229C51.3275 116.137 50.6236 115.978 50.2035 115.877C49.7838 115.776 49.0584 115.591 48.5921 115.466C48.1255 115.341 47.7508 115.231 47.759 115.223C47.7676 115.215 48.1072 115.267 48.5143 115.339C48.9209 115.412 49.589 115.521 49.9987 115.581C50.4083 115.642 51.0787 115.733 51.4883 115.785C51.898 115.835 52.5769 115.911 52.9966 115.952C53.4167 115.993 54.1205 116.052 54.5607 116.083C55.0013 116.114 55.7554 116.156 56.2366 116.176C56.7181 116.196 58.461 116.213 60.1097 116.213C61.7587 116.213 63.493 116.196 63.9641 116.176C64.4352 116.155 65.1811 116.114 65.6213 116.083C66.0619 116.053 66.8496 115.985 67.3717 115.933C67.8942 115.881 68.6397 115.797 69.0289 115.747C69.4181 115.697 70.0132 115.613 70.351 115.561C70.6887 115.509 71.3427 115.4 71.8034 115.319C72.2644 115.237 73.0349 115.088 73.5164 114.986C73.998 114.883 74.8609 114.685 75.4344 114.544C76.0079 114.403 76.8376 114.185 77.2778 114.061C77.718 113.936 78.4471 113.719 78.8978 113.578C79.3484 113.437 79.8847 113.264 80.0895 113.193C80.2943 113.122 80.4787 113.063 80.4991 113.063Z" fill="#C1F19E"/>
</g>
<path id="path571507" d="M26.7083 71.3197L25.1181 73.9353L24.8891 75.5701H24.3199L24.555 73.9415L23.7073 71.3197H24.2889L24.8953 73.448L26.1019 71.3197H26.7083Z" fill="#ABCF88"/>
<path id="path571509" d="M27.382 75.6443C27.0272 75.6443 26.7529 75.5312 26.559 75.305C26.3693 75.0788 26.2744 74.7683 26.2744 74.3735C26.2744 74.0527 26.328 73.7299 26.4353 73.405C26.5425 73.0801 26.7137 72.8066 26.9489 72.5845C27.1881 72.3624 27.4913 72.2514 27.8585 72.2514C28.2091 72.2514 28.4793 72.3645 28.669 72.5907C28.8629 72.8128 28.9599 73.1212 28.9599 73.516C28.9599 73.8327 28.9062 74.1555 28.799 74.4846C28.6959 74.8095 28.5247 75.085 28.2854 75.3112C28.0503 75.5333 27.7491 75.6443 27.382 75.6443ZM27.4006 75.2063C27.644 75.2063 27.8399 75.1118 27.9884 74.9226C28.1369 74.7334 28.2421 74.5051 28.304 74.2378C28.37 73.9705 28.403 73.7114 28.403 73.4605C28.403 72.9464 28.2132 72.6894 27.8337 72.6894C27.5903 72.6894 27.3944 72.784 27.2459 72.9732C27.0974 73.1582 26.9901 73.3844 26.9241 73.6518C26.8622 73.915 26.8313 74.1741 26.8313 74.429C26.8313 74.9472 27.021 75.2063 27.4006 75.2063Z" fill="#ABCF88"/>
<path id="path571511" d="M30.3223 75.6443C30.0996 75.6443 29.9222 75.5765 29.7902 75.4408C29.6623 75.3051 29.5984 75.1179 29.5984 74.8794C29.5984 74.8424 29.6025 74.7786 29.6108 74.6882L29.9449 72.3193H30.4832L30.1483 74.7003C30.1401 74.7414 30.136 74.7969 30.136 74.8668C30.136 75.1013 30.235 75.2185 30.433 75.2185C30.5939 75.2185 30.7465 75.1465 30.8909 75.0026C31.0353 74.8586 31.1776 74.6777 31.3178 74.4597L31.621 72.319H32.1594L31.7015 75.5701H31.245L31.2883 74.9902C31.1439 75.204 30.9975 75.3665 30.849 75.4775C30.7005 75.5886 30.5251 75.6441 30.323 75.6441L30.3223 75.6443Z" fill="#ABCF88"/>
<path id="path571513" d="M34.4667 72.2518C34.5575 72.2518 34.6544 72.2662 34.7575 72.295L34.5905 72.8132C34.4997 72.7926 34.4193 72.7823 34.3491 72.7823C34.1676 72.7823 34.0067 72.8728 33.8665 73.0538C33.7304 73.2306 33.6066 73.4897 33.4952 73.831L33.2539 75.5707H32.7156L33.1735 72.3197H33.6376L33.5942 72.9489C33.7056 72.7186 33.8335 72.5459 33.9779 72.4307C34.1223 72.3114 34.2852 72.2518 34.4667 72.2518Z" fill="#ABCF88"/>
<path id="path571515" d="M36.7373 72.3193H37.2075L37.1828 72.7142C37.4509 72.4057 37.7541 72.2515 38.0924 72.2515C38.3729 72.2515 38.5936 72.3543 38.7545 72.5599C38.9154 72.7656 38.9958 73.0576 38.9958 73.436C38.9958 73.7896 38.9401 74.1351 38.8287 74.4723C38.7174 74.8096 38.54 75.0892 38.2966 75.3113C38.0573 75.5334 37.75 75.6445 37.3746 75.6445C37.1849 75.6445 36.9992 75.6074 36.8177 75.5334L36.6321 76.8227L36.0938 76.8968L36.7373 72.3193ZM37.387 75.2127C37.6262 75.2127 37.8242 75.1222 37.981 74.9412C38.1419 74.7561 38.2574 74.5258 38.3275 74.2503C38.4018 73.9747 38.4389 73.6951 38.4389 73.4113C38.4389 72.926 38.2759 72.6834 37.95 72.6834C37.6943 72.6834 37.4303 72.8417 37.158 73.1584L36.8857 75.1201C37.0425 75.1818 37.2096 75.2127 37.387 75.2127Z" fill="#ABCF88"/>
<path id="path571517" d="M42.0618 73.0587C42.0618 73.4782 41.8886 73.7805 41.5421 73.9655C41.1997 74.1506 40.7191 74.2802 40.1003 74.3542V74.3912C40.1003 74.9217 40.3004 75.187 40.7005 75.187C40.8367 75.187 40.9666 75.1644 41.0904 75.1191C41.2141 75.0698 41.3461 74.9958 41.4864 74.8971L41.7153 75.2549C41.3729 75.514 41.0161 75.6435 40.6449 75.6435C40.2942 75.6435 40.022 75.5345 39.8281 75.3166C39.6383 75.0945 39.5435 74.7881 39.5435 74.3974C39.5435 74.056 39.5971 73.7208 39.7043 73.3918C39.8157 73.0628 39.991 72.7914 40.2303 72.5775C40.4695 72.3595 40.7686 72.2505 41.1275 72.2505C41.4245 72.2505 41.6535 72.3287 41.8143 72.485C41.9793 72.6371 42.0618 72.8284 42.0618 73.0587ZM41.1027 72.6824C40.8222 72.6824 40.6015 72.8037 40.4407 73.0464C40.2839 73.289 40.1808 73.5872 40.1313 73.9409C40.6057 73.8833 40.9542 73.7928 41.177 73.6694C41.3998 73.5419 41.5111 73.3445 41.5111 73.0772C41.5111 72.962 41.4781 72.8675 41.4121 72.7934C41.3461 72.7194 41.243 72.6824 41.1027 72.6824Z" fill="#ABCF88"/>
<path id="path571519" d="M44.2309 72.2518C44.3216 72.2518 44.4186 72.2662 44.5217 72.295L44.3546 72.8132C44.2639 72.7926 44.1834 72.7823 44.1133 72.7823C43.9318 72.7823 43.7709 72.8728 43.6307 73.0538C43.4945 73.2306 43.3708 73.4897 43.2594 73.831L43.0181 75.5707H42.4797L42.9376 72.3197H43.4017L43.3584 72.9489C43.4698 72.7186 43.5977 72.5459 43.742 72.4307C43.8864 72.3114 44.0494 72.2518 44.2309 72.2518Z" fill="#ABCF88"/>
<path id="path571521" d="M45.7718 72.2518C46.1554 72.2518 46.4834 72.3834 46.7556 72.6466L46.4896 72.9612C46.2668 72.7761 46.0276 72.6836 45.7718 72.6836C45.5944 72.6836 45.4521 72.7247 45.3449 72.807C45.2417 72.8892 45.1902 73.0044 45.1902 73.1524C45.1902 73.2676 45.2335 73.3622 45.3201 73.4362C45.4067 73.5061 45.5573 73.5801 45.7718 73.6583C46.0399 73.7529 46.2379 73.8721 46.3658 74.0161C46.4937 74.16 46.5576 74.3492 46.5576 74.5836C46.5576 74.8016 46.5019 74.9908 46.3906 75.1512C46.2792 75.3116 46.1265 75.435 45.9327 75.5213C45.7429 75.6036 45.5346 75.6447 45.3077 75.6447C44.8663 75.6447 44.4992 75.4905 44.2063 75.182L44.5157 74.8674C44.7632 75.0936 45.0334 75.2067 45.3263 75.2067C45.5532 75.2067 45.7202 75.1491 45.8275 75.034C45.9388 74.9147 45.9945 74.7811 45.9945 74.633C45.9945 74.4808 45.9512 74.3657 45.8646 74.2875C45.7821 74.2053 45.6253 74.123 45.3943 74.0408C45.1262 73.9421 44.9323 73.8269 44.8127 73.6953C44.6972 73.5637 44.6394 73.393 44.6394 73.1833C44.6394 73.0229 44.6848 72.8728 44.7756 72.733C44.8663 72.589 44.9963 72.4739 45.1654 72.3875C45.3386 72.297 45.5408 72.2518 45.7718 72.2518Z" fill="#ABCF88"/>
<path id="path571523" d="M48.2656 75.6443C47.9108 75.6443 47.6365 75.5312 47.4426 75.305C47.2528 75.0788 47.158 74.7683 47.158 74.3735C47.158 74.0527 47.2116 73.7299 47.3188 73.405C47.4261 73.0801 47.5973 72.8066 47.8324 72.5845C48.0717 72.3624 48.3749 72.2514 48.742 72.2514C49.0927 72.2514 49.3628 72.3645 49.5526 72.5907C49.7465 72.8128 49.8434 73.1212 49.8434 73.516C49.8434 73.8327 49.7898 74.1555 49.6825 74.4846C49.5794 74.8095 49.4082 75.085 49.169 75.3112C48.9338 75.5333 48.6327 75.6443 48.2656 75.6443ZM48.2841 75.2063C48.5275 75.2063 48.7234 75.1118 48.8719 74.9226C49.0204 74.7334 49.1256 74.5051 49.1875 74.2378C49.2535 73.9705 49.2865 73.7114 49.2865 73.4605C49.2865 72.9464 49.0968 72.6894 48.7172 72.6894C48.4738 72.6894 48.2779 72.784 48.1294 72.9732C47.9809 73.1582 47.8736 73.3844 47.8076 73.6518C47.7458 73.915 47.7148 74.1741 47.7148 74.429C47.7148 74.9472 47.9046 75.2063 48.2841 75.2063Z" fill="#ABCF88"/>
<path id="path571525" d="M52.2763 72.2458C52.4908 72.2458 52.662 72.3157 52.7899 72.4556C52.9178 72.5954 52.9817 72.7866 52.9817 73.0293C52.9817 73.1033 52.9755 73.1773 52.9632 73.2514L52.6352 75.5709H52.0969L52.4248 73.2575C52.4331 73.1753 52.4372 73.1177 52.4372 73.0848C52.4372 72.8298 52.3341 72.7023 52.1278 72.7023C51.8391 72.7023 51.5338 72.9984 51.212 73.5907L50.9336 75.5709H50.3953L50.8532 72.3199H51.3172L51.2677 72.9367C51.4162 72.7147 51.5709 72.544 51.7318 72.4247C51.8927 72.3055 52.0742 72.2458 52.2763 72.2458Z" fill="#ABCF88"/>
<path id="path571527" d="M55.2746 72.2518C55.5964 72.2518 55.9305 72.3361 56.277 72.5047L55.9429 74.8366C55.9346 74.9188 55.9305 74.9743 55.9305 75.0031C55.9305 75.0689 55.9429 75.1245 55.9676 75.1697C55.9924 75.2108 56.0377 75.2437 56.1037 75.2684L55.9305 75.6447C55.7779 75.6241 55.6582 75.5727 55.5716 75.4905C55.4891 75.4041 55.4396 75.2807 55.4231 75.1203C55.2952 75.2889 55.1612 75.4185 55.0209 75.509C54.8806 75.5995 54.7218 75.6447 54.5444 75.6447C54.2516 75.6447 54.0226 75.5398 53.8576 75.3301C53.6926 75.1162 53.6101 74.8304 53.6101 74.4726C53.6101 74.1271 53.6679 73.7837 53.7834 73.4424C53.8989 73.101 54.0824 72.8172 54.3341 72.591C54.5857 72.3648 54.8992 72.2518 55.2746 72.2518ZM55.2746 72.6836C55.0271 72.6836 54.8208 72.7741 54.6558 72.9551C54.4908 73.1319 54.3691 73.3581 54.2907 73.6336C54.2124 73.9092 54.1732 74.1889 54.1732 74.4726C54.1732 74.9661 54.3341 75.2129 54.6558 75.2129C54.8043 75.2129 54.9384 75.1636 55.058 75.0648C55.1776 74.9661 55.3055 74.8201 55.4417 74.6269L55.7016 72.7638C55.5695 72.7104 55.4272 72.6836 55.2746 72.6836Z" fill="#ABCF88"/>
<path id="path571529" d="M57.4316 74.9587L57.4254 75.0327C57.4254 75.1396 57.4729 75.1931 57.5678 75.1931C57.6338 75.1931 57.6998 75.1807 57.7658 75.1561L57.8586 75.5386C57.7225 75.6085 57.5822 75.6434 57.4378 75.6434C57.2687 75.6434 57.1346 75.5941 57.0356 75.4954C56.9408 75.3926 56.8933 75.2507 56.8933 75.0697C56.8933 75.0368 56.8974 74.9833 56.9057 74.9093L57.4564 71.0105L57.9947 70.9489L57.4316 74.9587Z" fill="#ABCF88"/>
<path id="path571531" d="M59.4528 72.3193L58.9949 75.5704H58.4565L58.9144 72.3193H59.4528ZM59.2981 71.5174C59.195 71.5174 59.1125 71.4865 59.0506 71.4248C58.9887 71.3632 58.9578 71.283 58.9578 71.1842C58.9578 71.065 58.9969 70.9683 59.0753 70.8943C59.1537 70.8162 59.2486 70.7771 59.36 70.7771C59.4631 70.7771 59.5456 70.8079 59.6075 70.8696C59.6693 70.9313 59.7003 71.0115 59.7003 71.1102C59.7003 71.2295 59.6611 71.3282 59.5827 71.4063C59.5043 71.4804 59.4095 71.5174 59.2981 71.5174Z" fill="#ABCF88"/>
<path id="path571533" d="M61.253 72.2518C61.6366 72.2518 61.9646 72.3834 62.2368 72.6466L61.9708 72.9612C61.748 72.7761 61.5088 72.6836 61.253 72.6836C61.0756 72.6836 60.9333 72.7247 60.826 72.807C60.7229 72.8892 60.6714 73.0044 60.6714 73.1524C60.6714 73.2676 60.7147 73.3622 60.8013 73.4362C60.8879 73.5061 61.0385 73.5801 61.253 73.6583C61.5211 73.7529 61.7191 73.8721 61.847 74.0161C61.9749 74.16 62.0388 74.3492 62.0388 74.5836C62.0388 74.8016 61.9831 74.9908 61.8718 75.1512C61.7604 75.3116 61.6077 75.435 61.4139 75.5213C61.2241 75.6036 61.0158 75.6447 60.7889 75.6447C60.3475 75.6447 59.9804 75.4905 59.6875 75.182L59.9969 74.8674C60.2444 75.0936 60.5146 75.2067 60.8075 75.2067C61.0344 75.2067 61.2014 75.1491 61.3087 75.034C61.42 74.9147 61.4757 74.7811 61.4757 74.633C61.4757 74.4808 61.4324 74.3657 61.3458 74.2875C61.2633 74.2053 61.1065 74.123 60.8755 74.0408C60.6074 73.9421 60.4135 73.8269 60.2939 73.6953C60.1784 73.5637 60.1206 73.393 60.1206 73.1833C60.1206 73.0229 60.166 72.8728 60.2568 72.733C60.3475 72.589 60.4774 72.4739 60.6466 72.3875C60.8198 72.297 61.022 72.2518 61.253 72.2518Z" fill="#ABCF88"/>
<path id="path571535" d="M65.1561 73.0587C65.1561 73.4782 64.9828 73.7805 64.6363 73.9655C64.2939 74.1506 63.8133 74.2802 63.1946 74.3542V74.3912C63.1946 74.9217 63.3946 75.187 63.7948 75.187C63.9309 75.187 64.0608 75.1644 64.1846 75.1191C64.3084 75.0698 64.4404 74.9958 64.5806 74.8971L64.8096 75.2549C64.4672 75.514 64.1104 75.6435 63.7391 75.6435C63.3885 75.6435 63.1162 75.5345 62.9223 75.3166C62.7326 75.0945 62.6377 74.7881 62.6377 74.3974C62.6377 74.056 62.6913 73.7208 62.7986 73.3918C62.9099 73.0628 63.0853 72.7914 63.3245 72.5775C63.5638 72.3595 63.8629 72.2505 64.2217 72.2505C64.5188 72.2505 64.7477 72.3287 64.9086 72.485C65.0736 72.6371 65.1561 72.8284 65.1561 73.0587ZM64.197 72.6824C63.9165 72.6824 63.6958 72.8037 63.5349 73.0464C63.3781 73.289 63.275 73.5872 63.2255 73.9409C63.6999 73.8833 64.0485 73.7928 64.2712 73.6694C64.494 73.5419 64.6054 73.3445 64.6054 73.0772C64.6054 72.962 64.5724 72.8675 64.5064 72.7934C64.4404 72.7194 64.3372 72.6824 64.197 72.6824Z" fill="#ABCF88"/>
<path id="path571537" d="M68.4533 71.0176L67.8098 75.5704H67.3395L67.3519 75.046C67.125 75.445 66.8259 75.6444 66.4547 75.6444C66.1577 75.6444 65.9287 75.5375 65.7678 75.3236C65.6111 75.1057 65.5327 74.8095 65.5327 74.4353C65.5327 74.1104 65.5843 73.7793 65.6874 73.4421C65.7905 73.1007 65.9494 72.817 66.1639 72.5908C66.3784 72.3605 66.6465 72.2453 66.9683 72.2453C67.2777 72.2453 67.5169 72.3769 67.686 72.6401L67.9212 70.9622L68.4533 71.0176ZM67.0425 72.677C66.8239 72.677 66.6424 72.7737 66.498 72.967C66.3536 73.1562 66.2484 73.3885 66.1824 73.6641C66.1205 73.9396 66.0896 74.207 66.0896 74.4661C66.0896 74.7128 66.1309 74.8999 66.2134 75.0274C66.3 75.1508 66.4196 75.2125 66.5722 75.2125C66.7331 75.2125 66.8796 75.1488 67.0116 75.0213C67.1477 74.8897 67.29 74.6964 67.4385 74.4414L67.6242 73.0842C67.554 72.9485 67.4715 72.8477 67.3766 72.7819C67.2859 72.712 67.1745 72.677 67.0425 72.677Z" fill="#ABCF88"/>
<path id="path571539" d="M73.4152 71.3197L71.6269 75.5702H70.9958L70.3894 71.3197H70.9649L71.3856 74.9656L72.8335 71.3197H73.4152Z" fill="#ABCF88"/>
<path id="path571541" d="M74.3661 72.3193L73.9082 75.5704H73.3699L73.8278 72.3193H74.3661ZM74.2114 71.5174C74.1083 71.5174 74.0258 71.4865 73.9639 71.4248C73.902 71.3632 73.8711 71.283 73.8711 71.1842C73.8711 71.065 73.9103 70.9683 73.9887 70.8943C74.067 70.8162 74.1619 70.7771 74.2733 70.7771C74.3764 70.7771 74.4589 70.8079 74.5208 70.8696C74.5827 70.9313 74.6136 71.0115 74.6136 71.1102C74.6136 71.2295 74.5744 71.3282 74.496 71.4063C74.4177 71.4804 74.3228 71.5174 74.2114 71.5174Z" fill="#ABCF88"/>
<path id="path571543" d="M75.6219 74.7937C75.6178 74.8225 75.6157 74.8616 75.6157 74.9109C75.6157 75.0055 75.6364 75.0775 75.6776 75.1268C75.723 75.1721 75.7911 75.1947 75.8818 75.1947C75.9478 75.1947 76.0117 75.1844 76.0736 75.1638C76.1396 75.1433 76.2159 75.1104 76.3026 75.0651L76.4696 75.4291C76.2593 75.5731 76.0344 75.645 75.7952 75.645C75.5724 75.645 75.3971 75.5833 75.2692 75.46C75.1413 75.3325 75.0774 75.1597 75.0774 74.9418C75.0774 74.9089 75.0815 74.8513 75.0898 74.769L75.3744 72.7456H74.8794L74.9413 72.32H75.4548L75.6467 71.5673L76.086 71.518L75.9746 72.3199H76.6614L76.5377 72.7456H75.9127L75.6219 74.7937Z" fill="#ABCF88"/>
<path id="path571545" d="M78.4785 72.2518C78.8002 72.2518 79.1344 72.3361 79.4809 72.5047L79.1467 74.8366C79.1385 74.9188 79.1343 74.9743 79.1343 75.0031C79.1343 75.0689 79.1467 75.1245 79.1715 75.1697C79.1962 75.2108 79.2416 75.2437 79.3076 75.2684L79.1343 75.6447C78.9817 75.6241 78.8621 75.5727 78.7755 75.4905C78.693 75.4041 78.6435 75.2807 78.627 75.1203C78.4991 75.2889 78.365 75.4185 78.2248 75.509C78.0845 75.5995 77.9257 75.6447 77.7483 75.6447C77.4554 75.6447 77.2265 75.5398 77.0615 75.3301C76.8965 75.1162 76.814 74.8304 76.814 74.4726C76.814 74.1271 76.8717 73.7837 76.9872 73.4424C77.1027 73.101 77.2863 72.8172 77.5379 72.591C77.7896 72.3648 78.1031 72.2518 78.4785 72.2518ZM78.4785 72.6836C78.231 72.6836 78.0247 72.7741 77.8597 72.9551C77.6947 73.1319 77.573 73.3581 77.4946 73.6336C77.4162 73.9092 77.377 74.1889 77.377 74.4726C77.377 74.9661 77.5379 75.2129 77.8597 75.2129C78.0082 75.2129 78.1422 75.1636 78.2619 75.0648C78.3815 74.9661 78.5094 74.8201 78.6455 74.6269L78.9054 72.7638C78.7734 72.7104 78.6311 72.6836 78.4785 72.6836Z" fill="#ABCF88"/>
<path id="path571547" d="M83.4641 72.2458C83.6621 72.2458 83.8209 72.3157 83.9405 72.4556C84.0602 72.5954 84.12 72.7866 84.12 73.0293C84.12 73.1157 84.1159 73.1835 84.1076 73.2329L83.7735 75.5709H83.2351L83.5631 73.2575C83.5713 73.167 83.5755 73.1074 83.5755 73.0786C83.5755 72.8277 83.4806 72.7023 83.2908 72.7023C83.1547 72.7023 83.0165 72.7846 82.8762 72.9491C82.7401 73.1095 82.6019 73.3213 82.4617 73.5845L82.1708 75.5709H81.6325L81.9604 73.2575C81.9687 73.167 81.9728 73.1053 81.9728 73.0724C81.9728 72.9408 81.9481 72.8462 81.8986 72.7887C81.8491 72.7311 81.7789 72.7023 81.6882 72.7023C81.5521 72.7023 81.4139 72.7846 81.2736 72.9491C81.1375 73.1095 80.9993 73.3233 80.859 73.5907L80.5806 75.5709H80.0422L80.5001 72.3199H80.9642L80.9147 72.9244C81.055 72.7064 81.2014 72.5399 81.354 72.4247C81.5067 72.3055 81.6758 72.2458 81.8614 72.2458C82.0347 72.2458 82.1791 72.3034 82.2946 72.4186C82.4142 72.5337 82.4864 72.6962 82.5111 72.9059C82.6555 72.6879 82.804 72.5234 82.9567 72.4124C83.1134 72.3014 83.2826 72.2458 83.4641 72.2458Z" fill="#ABCF88"/>
<path id="path571549" d="M85.7626 72.3193L85.3047 75.5704H84.7664L85.2243 72.3193H85.7626ZM85.6079 71.5174C85.5048 71.5174 85.4223 71.4865 85.3604 71.4248C85.2985 71.3632 85.2676 71.283 85.2676 71.1842C85.2676 71.065 85.3068 70.9683 85.3851 70.8943C85.4635 70.8162 85.5584 70.7771 85.6698 70.7771C85.7729 70.7771 85.8554 70.8079 85.9173 70.8696C85.9791 70.9313 86.0101 71.0115 86.0101 71.1102C86.0101 71.2295 85.9709 71.3282 85.8925 71.4063C85.8141 71.4804 85.7193 71.5174 85.6079 71.5174Z" fill="#ABCF88"/>
<path id="path571551" d="M88.2067 72.2458C88.4213 72.2458 88.5925 72.3157 88.7203 72.4556C88.8482 72.5954 88.9121 72.7866 88.9121 73.0293C88.9121 73.1033 88.906 73.1773 88.8936 73.2514L88.5656 75.5709H88.0273L88.3552 73.2575C88.3635 73.1753 88.3676 73.1177 88.3676 73.0848C88.3676 72.8298 88.2645 72.7023 88.0582 72.7023C87.7695 72.7023 87.4642 72.9984 87.1425 73.5907L86.864 75.5709H86.3257L86.7836 72.3199H87.2477L87.1982 72.9367C87.3467 72.7147 87.5013 72.544 87.6622 72.4247C87.8231 72.3055 88.0046 72.2458 88.2067 72.2458Z" fill="#ABCF88"/>
<path id="path571553" d="M91.173 71.3197C91.5979 71.3197 91.9238 71.4142 92.1507 71.6034C92.3817 71.7926 92.4972 72.0702 92.4972 72.4362C92.4972 72.7118 92.4394 72.9668 92.3239 73.2012C92.2125 73.4356 92.029 73.6269 91.7732 73.7749C91.5216 73.923 91.1957 73.997 90.7955 73.997H90.3624L90.1397 75.5701H89.5828L90.183 71.3196L91.173 71.3197ZM90.8203 73.5528C91.2246 73.5528 91.5071 73.4458 91.668 73.232C91.833 73.0181 91.9155 72.7508 91.9155 72.43C91.9155 72.1915 91.8475 72.0208 91.7113 71.918C91.5793 71.8151 91.3793 71.7637 91.1111 71.7637H90.678L90.4243 73.5528H90.8203Z" fill="#ABCF88"/>
<path id="path571555" d="M94.2009 72.2518C94.5226 72.2518 94.8568 72.3361 95.2033 72.5047L94.8691 74.8366C94.8609 74.9188 94.8568 74.9743 94.8568 75.0031C94.8568 75.0689 94.8691 75.1245 94.8939 75.1697C94.9186 75.2108 94.964 75.2437 95.03 75.2684L94.8568 75.6447C94.7041 75.6241 94.5845 75.5727 94.4979 75.4905C94.4154 75.4041 94.3659 75.2807 94.3494 75.1203C94.2215 75.2889 94.0874 75.4185 93.9472 75.509C93.8069 75.5995 93.6481 75.6447 93.4707 75.6447C93.1778 75.6447 92.9489 75.5398 92.7839 75.3301C92.6189 75.1162 92.5364 74.8304 92.5364 74.4726C92.5364 74.1271 92.5941 73.7837 92.7096 73.4424C92.8251 73.101 93.0087 72.8172 93.2604 72.591C93.512 72.3648 93.8255 72.2518 94.2009 72.2518ZM94.2009 72.6836C93.9534 72.6836 93.7471 72.7741 93.5821 72.9551C93.4171 73.1319 93.2954 73.3581 93.217 73.6336C93.1386 73.9092 93.0995 74.1889 93.0995 74.4726C93.0995 74.9661 93.2603 75.2129 93.5821 75.2129C93.7306 75.2129 93.8647 75.1636 93.9843 75.0648C94.1039 74.9661 94.2318 74.8201 94.3679 74.6269L94.6278 72.7638C94.4958 72.7104 94.3535 72.6836 94.2009 72.6836Z" fill="#ABCF88"/>
<path id="path571557" d="M97.3306 72.2518C97.5039 72.2518 97.6586 72.2806 97.7947 72.3381C97.935 72.3916 98.0649 72.48 98.1845 72.6034L97.8937 72.9304C97.8071 72.8481 97.7184 72.7885 97.6276 72.7515C97.541 72.7144 97.442 72.6959 97.3306 72.6959C97.0914 72.6959 96.8975 72.7864 96.749 72.9674C96.6005 73.1442 96.4932 73.3642 96.4272 73.6275C96.3612 73.8907 96.3282 74.156 96.3282 74.4233C96.3282 74.9291 96.518 75.1821 96.8975 75.1821C97.0171 75.1821 97.1264 75.1636 97.2254 75.1265C97.3244 75.0854 97.4358 75.0237 97.5596 74.9415L97.7761 75.3055C97.4833 75.5316 97.1739 75.6447 96.848 75.6447C96.5056 75.6447 96.2395 75.5358 96.0498 75.3178C95.86 75.0957 95.7651 74.7873 95.7651 74.3924C95.7651 74.0552 95.8208 73.7241 95.9322 73.3992C96.0436 73.0702 96.2168 72.7967 96.452 72.5788C96.6871 72.3608 96.98 72.2518 97.3306 72.2518Z" fill="#ABCF88"/>
<path id="path571560" d="M35.0868 48.476C34.9368 48.1906 34.5959 48.0546 34.2959 48.1634C32.687 48.7207 20.3197 49.9306 17.5245 49.2781C17.1836 49.1965 16.8291 49.414 16.7609 49.7675C16.6791 50.1073 16.8973 50.4472 17.2382 50.5287C19.5697 51.0725 27.3829 50.488 31.8144 49.9034C26.5921 53.6283 14.184 62.478 12.0432 64.0957C11.7978 64.286 11.716 64.6259 11.8523 64.8978C12.0023 65.1697 12.3159 65.3192 12.6159 65.224C15.2883 64.4492 18.67 65.1968 21.9425 65.9309C24.0014 66.3931 26.0058 66.8417 27.7102 66.8417C28.8147 66.8417 29.7964 66.6514 30.5872 66.162C30.8871 65.9717 30.9826 65.5775 30.7917 65.2784C30.6008 64.9793 30.219 64.8842 29.9054 65.0745C28.3373 66.0397 25.3649 65.3872 22.215 64.6803C19.8424 64.1501 17.2517 63.5792 14.852 63.6335C20.5652 59.4873 34.7186 49.4005 34.8823 49.2918C35.1414 49.1014 35.2231 48.7615 35.0868 48.476Z" fill="#3F9E11" stroke="#3F9E11" stroke-width="1.425" stroke-miterlimit="2"/>
<path id="path571562" d="M44.1191 61.5673C43.9282 61.2682 43.5328 61.1867 43.2328 61.377C37.2059 65.2785 34.8335 64.8435 34.0971 64.4629C33.5517 64.191 33.4563 63.7696 33.4426 63.5521C33.429 63.3346 33.4426 63.1443 33.4835 62.9539C33.5108 62.9539 33.5517 62.9675 33.5926 62.9675C36.0061 63.0083 39.4285 61.4042 39.5648 60.1535C39.633 59.6505 39.4285 59.2155 39.0194 58.9572C38.0513 58.3319 36.156 58.8077 34.7652 59.6098C33.0062 60.6293 32.0654 62.0974 32.1609 63.62C32.2155 64.4764 32.7063 65.1969 33.5108 65.6047C33.9471 65.8223 34.5198 65.9854 35.2834 65.9854C37.0287 65.9854 39.7284 65.1697 43.9283 62.4509C44.2282 62.2606 44.31 61.8664 44.1191 61.5673ZM35.7607 60.5342C36.6606 60.072 37.4242 59.9496 37.8741 59.9496C38.065 59.9496 38.1878 59.9632 38.2696 59.9904C37.9014 60.439 36.0606 61.4857 34.2063 61.6625C34.7517 61.0779 35.4471 60.6837 35.7607 60.5342Z" fill="#4AAB0D" stroke="#4AAB0D" stroke-width="1.425" stroke-miterlimit="2"/>
<path id="path571564" d="M59.744 60.7385C59.5668 60.4395 59.1713 60.3307 58.8577 60.521C57.3851 61.3911 53.1855 63.6342 51.44 63.6342C51.2628 63.6342 51.1673 63.6206 51.1264 63.607C51.0992 63.3895 51.331 62.8049 51.4537 62.4923C51.7673 61.731 52.0536 61.0241 51.6718 60.4532C51.5219 60.2356 51.2219 59.9774 50.6219 59.9774C49.2311 59.9774 47.2267 61.4455 45.4541 62.7369C45.0586 63.0224 44.6087 63.3622 44.2269 63.6069C44.6223 62.7097 45.3723 61.3774 45.6586 60.9833C45.8631 60.6978 45.7813 60.29 45.495 60.0861C45.2086 59.8958 44.8132 59.9638 44.6087 60.2492C44.5814 60.2764 42.2361 63.7972 42.8088 64.8712C42.9452 65.1567 43.2179 65.3198 43.5451 65.3198C44.0769 65.3198 44.745 64.844 46.2176 63.7701C47.5538 62.7913 49.5582 61.3367 50.54 61.2552C50.4854 61.4727 50.3627 61.799 50.2673 62.0165C49.9537 62.7913 49.5992 63.6614 50.0491 64.3275C50.3218 64.7217 50.7854 64.912 51.4399 64.912C53.8534 64.912 58.9393 61.9485 59.5121 61.6222C59.8257 61.4319 59.9213 61.0376 59.744 60.7385Z" fill="#55B709" stroke="#55B709" stroke-width="1.425" stroke-miterlimit="2"/>
<path id="path571566" d="M75.7615 60.7525C75.5842 60.4398 75.2024 60.331 74.8888 60.5078C74.6298 60.6573 74.3843 60.8068 74.1253 60.9428C71.889 62.2342 69.7893 63.4305 67.7031 63.4305C67.0623 63.4305 66.8714 63.1858 66.8168 63.1042C66.4487 62.6148 66.6668 61.5817 66.7623 61.2554C66.8577 60.9699 66.735 60.6573 66.4759 60.5077C66.2032 60.3582 65.876 60.4126 65.6715 60.6437C63.9671 62.574 61.3355 64.2054 59.9311 64.2054C59.8493 64.2054 59.6038 64.2054 59.5493 64.1102C59.4129 63.8655 59.5357 62.9411 60.4765 61.3914C60.6538 61.0923 60.5583 60.6981 60.2583 60.5214C59.9584 60.331 59.5629 60.4262 59.372 60.7389C58.6221 61.9895 57.8449 63.6888 58.4312 64.7356C58.6221 65.0755 59.0448 65.4833 59.9311 65.4833C61.54 65.4833 63.6808 64.2326 65.3579 62.751C65.4124 63.1452 65.5351 63.5258 65.7806 63.8657C66.0669 64.2463 66.626 64.7221 67.7032 64.7221C70.1302 64.7221 72.4891 63.3627 74.7662 62.0577C75.0116 61.9082 75.2707 61.7723 75.5161 61.6227C75.8297 61.446 75.9388 61.0518 75.7616 60.7527L75.7615 60.7525Z" fill="#60C405" stroke="#60C405" stroke-width="1.425" stroke-miterlimit="2"/>
<path id="path571568" d="M88.1288 54.5934C87.2562 54.1991 85.7427 53.9816 83.6156 53.9816L84.202 53.2883C91.6741 44.5746 91.2923 43.7045 91.0469 43.1472C90.8969 42.8074 90.5697 42.6171 90.1743 42.6171C87.4608 42.6171 82.443 49.4141 81.475 50.787C80.725 51.8338 79.9615 52.9756 79.2387 54.1583C76.1435 54.3894 73.4302 54.7837 73.4028 54.7837C73.0483 54.838 72.8029 55.1643 72.8574 55.5177C72.912 55.8304 73.1847 56.0615 73.4983 56.0615H73.5937C74.6982 55.8984 76.498 55.6809 78.4478 55.5041C77.507 57.1762 76.7025 58.8482 76.1844 60.3708C76.1026 60.4524 76.0345 60.5475 75.9527 60.6291C75.7481 60.8466 75.7209 61.1728 75.8708 61.4039C75.6936 62.1244 75.5981 62.7769 75.5981 63.3615C75.5981 64.2587 75.8299 64.9792 76.2935 65.4821C76.798 66.0394 77.548 66.3249 78.5025 66.3249C82.2386 66.3249 86.7927 61.7029 86.9972 61.5125C87.2427 61.2542 87.229 60.86 86.9836 60.6017C86.7245 60.357 86.3155 60.3706 86.07 60.6153C86.0291 60.6561 81.6932 65.0334 78.5024 65.0334C77.9161 65.0334 77.4934 64.8975 77.248 64.6256C77.0026 64.3537 76.8798 63.9323 76.8798 63.3613C76.8798 62.7224 77.0298 61.9339 77.3162 61.0231C78.1888 60.0851 80.2478 57.8285 82.484 55.2728C84.693 55.2049 86.6564 55.3136 87.5837 55.7486C87.911 55.8982 88.2927 55.7622 88.4427 55.4496C88.5927 55.1233 88.4564 54.7427 88.1291 54.5931L88.1288 54.5934ZM82.5111 51.5212C85.5244 47.3343 88.3196 44.6154 89.6969 44.0172C88.9879 45.5398 85.8109 49.5093 81.8975 54.0089L80.8203 54.0497C81.3384 53.2204 81.9111 52.3775 82.5111 51.5212ZM78.8569 57.4346C79.1977 56.7821 79.5795 56.0888 80.0022 55.382L80.7249 55.3412C80.1113 56.0345 79.4977 56.7277 78.8569 57.4346Z" fill="#6BD101" stroke="#6BD101" stroke-width="1.425" stroke-miterlimit="2"/>
<path id="path571570" d="M99.4178 60.7246C99.2269 60.4256 98.8315 60.3304 98.5315 60.5207C96.6225 61.717 93.0092 61.6218 91.6048 60.6838C91.3321 60.5071 90.6367 60.0313 88.0461 62.3559C88.346 61.5675 88.5778 60.9557 88.5915 60.9014C88.7142 60.5751 88.5369 60.2081 88.2097 60.0857C87.8688 59.9634 87.5007 60.1401 87.3916 60.4663C87.3779 60.5071 86.2053 63.7289 85.5372 64.8709C85.3735 65.1564 85.4554 65.5098 85.7144 65.7001C85.8371 65.7953 85.9599 65.8361 86.0962 65.8361C86.2735 65.8361 86.4507 65.7545 86.5735 65.6186C88.3869 63.661 90.364 61.9617 90.9776 61.7987C92.9684 63.0494 97.0726 62.9542 99.2134 61.6084C99.5134 61.4181 99.6088 61.0239 99.4179 60.7248L99.4178 60.7246Z" fill="#77DE00" stroke="#77DE00" stroke-width="1.425" stroke-miterlimit="2"/>
<path id="path571572" d="M103.662 56.9724C103.744 57.0539 103.866 57.2986 103.948 57.4889C104.057 57.7336 104.289 57.8832 104.548 57.8832C104.63 57.8832 104.712 57.8696 104.794 57.8424C105.121 57.7064 105.271 57.3394 105.135 57.0131C104.985 56.6325 104.657 55.98 104.153 55.8033C103.826 55.6809 103.457 55.8576 103.335 56.1839C103.226 56.4966 103.376 56.8364 103.662 56.9724ZM110.016 60.7243C109.825 60.4252 109.43 60.33 109.13 60.5203C102.912 64.3539 100.771 63.8509 100.267 63.6062C100.048 63.4975 99.9257 63.3479 99.8985 63.1576C99.8439 62.6818 100.43 61.3904 101.78 60.5203C102.08 60.33 102.162 59.9358 101.971 59.6367C101.78 59.3376 101.371 59.256 101.085 59.4464C99.394 60.5339 98.5076 62.2604 98.6304 63.2935C98.6986 63.9188 99.0804 64.449 99.7076 64.748C100.062 64.9247 100.553 65.0471 101.207 65.0471C102.83 65.0471 105.489 64.2722 109.798 61.6078C110.098 61.4175 110.193 61.0233 110.016 60.7243Z" fill="#82EA00" stroke="#82EA00" stroke-width="1.425" stroke-miterlimit="2"/>
</g>
</svg>
