<svg width="20" height="22" viewBox="0 0 20 22" fill="none" xmlns="http://www.w3.org/2000/svg">
<g id="Bag">
<path id="Path_33955" fill-rule="evenodd" clip-rule="evenodd" d="M14.2639 20.5H5.91604C2.84968 20.5 0.497274 19.3925 1.16547 14.9348L1.9435 8.89363C2.3554 6.66937 3.77416 5.81812 5.01901 5.81812H15.1975C16.4607 5.81812 17.797 6.73345 18.273 8.89363L19.0511 14.9348C19.6186 18.8891 17.3302 20.5 14.2639 20.5Z" stroke="#130F26" stroke-width="1.5" stroke-linecap="round" stroke-linejoin="round"/>
<path id="Path_33956" d="M14.4012 5.59842C14.4012 3.21235 12.4669 1.27805 10.0809 1.27805V1.27805C8.93186 1.27319 7.82825 1.72622 7.01406 2.53697C6.19987 3.34772 5.74218 4.44941 5.74219 5.59842H5.74219" stroke="#130F26" stroke-width="1.5" stroke-linecap="round" stroke-linejoin="round"/>
<path id="Line_192" d="M13.0465 10.1018H13.0007" stroke="#130F26" stroke-width="1.5" stroke-linecap="round" stroke-linejoin="round"/>
<path id="Line_193" d="M7.2159 10.1018H7.17013" stroke="#130F26" stroke-width="1.5" stroke-linecap="round" stroke-linejoin="round"/>
</g>
</svg>
