<svg width="16" height="22" viewBox="0 0 16 22" fill="none" xmlns="http://www.w3.org/2000/svg">
<g id="Profile">
<path id="Stroke 1" fill-rule="evenodd" clip-rule="evenodd" d="M8.09455 20.6619C4.40273 20.6619 1.25 20.0874 1.25 17.7867C1.25 15.4859 4.38273 13.3619 8.09455 13.3619C11.7864 13.3619 14.9391 15.4653 14.9391 17.7661C14.9391 20.0659 11.8064 20.6619 8.09455 20.6619Z" stroke="#130F26" stroke-width="1.5" stroke-linecap="round" stroke-linejoin="round"/>
<path id="Stroke 3" fill-rule="evenodd" clip-rule="evenodd" d="M8.08749 10.1737C10.5102 10.1737 12.4739 8.21002 12.4739 5.7873C12.4739 3.36457 10.5102 1.40002 8.08749 1.40002C5.66477 1.40002 3.70022 3.36457 3.70022 5.7873C3.69204 8.20184 5.64204 10.1655 8.05658 10.1737C8.06749 10.1737 8.07749 10.1737 8.08749 10.1737Z" stroke="#130F26" stroke-width="1.5" stroke-linecap="round" stroke-linejoin="round"/>
</g>
</svg>
