<svg width="22" height="24" viewBox="0 0 22 24" fill="none" xmlns="http://www.w3.org/2000/svg">
<g id="Group">
<g id="Group_2">
<g id="Group_3">
<path id="Vector" d="M17.4799 5.09109L16.3221 6.57851C18.8178 8.5205 20.0627 11.6645 19.5714 14.7845C19.2115 17.0739 17.9813 19.0861 16.1078 20.4508C14.2337 21.8148 11.9412 22.3692 9.65178 22.0074C4.9257 21.2632 1.68518 16.813 2.42809 12.0865C2.78802 9.79686 4.01856 7.78453 5.8923 6.42022C7.52822 5.22932 9.48309 4.65734 11.4766 4.77079L9.84723 6.48017L11.056 7.63367L13.628 4.93342L13.6286 4.93441L14.7809 3.72443L13.573 2.57218L13.5724 2.57255L10.8732 0L9.72003 1.20998L11.4788 2.88517C9.08798 2.77208 6.74618 3.46755 4.78314 4.89688C2.50253 6.55746 1.00508 9.00664 0.566615 11.794C-0.337802 17.5466 3.60611 22.964 9.35873 23.8693C9.91474 23.957 10.4705 24 11.0227 24C13.2385 24 15.3915 23.3035 17.217 21.9742C19.4978 20.3133 20.995 17.8642 21.4335 15.0775C22.0316 11.2807 20.5166 7.45395 17.4799 5.09109Z" fill="black"/>
<path id="Vector_2" d="M12.0349 18.823V18.8226L12.035 17.7379C13.3211 17.5944 14.5723 16.782 14.5723 15.2397C14.5723 13.1441 12.6237 12.9039 11.2005 12.7286C10.2905 12.6199 9.59401 12.4936 9.59401 11.9423C9.59401 11.1759 10.6743 11.0933 11.1389 11.0933C11.8284 11.0933 12.5641 11.4174 12.8141 11.8311L12.8867 11.9514L14.3163 11.2899L14.2455 11.1457C13.7128 10.0566 12.7581 9.7415 12.0347 9.6143V8.65934H10.3607V9.61021C8.80231 9.84009 7.87684 10.705 7.87684 11.9423C7.87684 13.96 9.70883 14.1647 11.0454 14.3146C12.2365 14.4551 12.7911 14.7494 12.7911 15.2397C12.7911 16.1765 11.4938 16.2497 11.0961 16.2497C10.2108 16.2497 9.35732 15.808 9.11047 15.2215L9.04916 15.0767L7.49609 15.7352L7.55802 15.8799C8.01791 16.9564 9.01027 17.6309 10.3609 17.7905V18.823H12.0349Z" fill="black"/>
</g>
</g>
</g>
</svg>
