<svg width="24" height="18" viewBox="0 0 24 18" fill="none" xmlns="http://www.w3.org/2000/svg">
<g id="Group 33488">
<path id="Vector" d="M18 11C16.3458 11 15 12.3457 15 14C15 15.6542 16.3458 17 18 17C19.6545 17 21 15.6542 21 14C21 12.3457 19.6542 11 18 11ZM18 15.5C17.1728 15.5 16.5 14.8272 16.5 14C16.5 13.1727 17.1728 12.5 18 12.5C18.8272 12.5 19.5 13.1727 19.5 14C19.5 14.8272 18.8272 15.5 18 15.5Z" fill="black"/>
<path id="Vector_2" d="M7.7998 11.1C6.14557 11.1 4.7998 12.4457 4.7998 14.1C4.7998 15.7542 6.14557 17.1 7.7998 17.1C9.45404 17.1 10.7998 15.7542 10.7998 14.1C10.7998 12.4457 9.45404 11.1 7.7998 11.1ZM7.7998 15.6C6.97257 15.6 6.2998 14.9272 6.2998 14.1C6.2998 13.2727 6.97257 12.6 7.7998 12.6C8.6268 12.6 9.2998 13.2727 9.2998 14.1C9.2998 14.9273 8.62704 15.6 7.7998 15.6Z" fill="black"/>
<path id="Vector_3" d="M19.7075 2.37124C19.5776 2.14358 19.3135 1.99996 19.0246 1.99996H15V3.3484H18.5534L20.6342 6.99996L22 6.39404L19.7075 2.37124Z" fill="black"/>
<path id="Vector_4" d="M15.6001 13.5H9.6001V14.7H15.6001V13.5Z" fill="black"/>
<path id="Vector_5" d="M5.34134 13.5H3.05843C2.69467 13.5 2.3999 13.7686 2.3999 14.1C2.3999 14.4314 2.69472 14.7 3.05843 14.7H5.34138C5.70513 14.7 5.9999 14.4314 5.9999 14.1C5.9999 13.7686 5.70509 13.5 5.34134 13.5Z" fill="black"/>
<path id="Vector_6" d="M23.8429 8.56177L22.3728 6.64512C22.2316 6.46051 22.0136 6.35256 21.7826 6.35256H16.3515V1.05656C16.3515 0.638659 16.0169 0.300007 15.6041 0.300007H3.14729C2.73445 0.300007 2.3999 0.638706 2.3999 1.05656C2.3999 1.47441 2.7345 1.81311 3.14729 1.81311H14.8566V7.10911C14.8566 7.52701 15.1912 7.86566 15.604 7.86566H21.4166L22.5051 9.28499V13.1869H20.4372C20.0244 13.1869 19.6899 13.5256 19.6899 13.9434C19.6899 14.3613 20.0244 14.7 20.4372 14.7H23.2525C23.6653 14.7 23.9998 14.3613 23.9999 13.9434V9.02582C23.9999 8.85785 23.9446 8.69443 23.8429 8.56177Z" fill="black"/>
<path id="Vector_7" d="M5.27298 9.90008H1.92746C1.52574 9.90008 1.2002 10.1687 1.2002 10.5001C1.2002 10.8315 1.52578 11.1001 1.92746 11.1001H5.27293C5.67465 11.1001 6.00019 10.8315 6.00019 10.5001C6.00024 10.1687 5.67465 9.90008 5.27298 9.90008Z" fill="black"/>
<path id="Vector_8" d="M7.60255 6.29988H0.797448C0.357008 6.29988 0 6.56848 0 6.89989C0 7.23131 0.357008 7.49988 0.797448 7.49988H7.60255C8.04304 7.49988 8.4 7.23127 8.4 6.89989C8.4 6.56852 8.04304 6.29988 7.60255 6.29988Z" fill="black"/>
<path id="Vector_9" d="M8.80274 3.89995H1.99764C1.55715 3.89995 1.2002 4.16857 1.2002 4.49995C1.2002 4.83138 1.5572 5.09995 1.99764 5.09995H8.80274C9.24323 5.09995 9.60019 4.83134 9.60019 4.49995C9.60024 4.16857 9.24323 3.89995 8.80274 3.89995Z" fill="black"/>
</g>
</svg>
